<?xml version="1.0" encoding="utf-8"?>
<!-- Generator: Adobe Illustrator 24.1.3, SVG Export Plug-In . SVG Version: 6.00 Build 0)  -->
<svg version="1.1" id="Layer_1" xmlns="http://www.w3.org/2000/svg" xmlns:xlink="http://www.w3.org/1999/xlink" x="0px" y="0px"
	 viewBox="0 0 500 500" style="enable-background:new 0 0 500 500;" xml:space="preserve">
<style type="text/css">
	
		.st0{opacity:0.77;fill:#FF12EA;stroke:#F4279D;stroke-width:1.27;stroke-linecap:round;stroke-linejoin:round;stroke-miterlimit:12.7;enable-background:new    ;}
	.st1{fill:none;stroke:#000000;stroke-linecap:round;stroke-linejoin:round;stroke-miterlimit:10;}
	.st2{fill:#95D5FF;}
	.st3{fill:#FFF312;}
	.st4{fill:#6C3BF4;fill-opacity:0.24;}
	.st5{fill:#FFF312;fill-opacity:0.59;}
	.st6{fill:#FC861D;fill-opacity:0.68;}
	.st7{fill:#FF64BD;}
</style>
<desc>Created with Fabric.js 4.6.0</desc>
<g id="OZnDVDgNpDzpEBEFlIsdx" transform="matrix(1.27 0 0 1.27 311.99 165.64)">
	<path vector-effect="non-scaling-stroke" class="st0" d="M-39.6,10.2c0,0,0,0.2,0,0.5s0,0.6,0,0.9c0,0.3,0,0.6,0,0.9
		c0,0.3,0,0.6,0,0.9c0,0.3,0.2,0.6,0.5,0.9s0.5,0.6,0.5,0.9c0,0.3,0.2,0.8,0.5,1.4c0.3,0.6,0.5,1.2,0.5,1.9c0,0.6,0.2,1.2,0.5,1.9
		c0.3,0.6,0.6,1.2,0.9,1.9c0.3,0.6,0.5,1.2,0.5,1.9s0,1.1,0,1.4c0,0.3-0.5,0.2-1.4-0.5c-0.9-0.6-1.9-1.4-2.8-2.3s-1.9-2.3-2.8-4.2
		s-1.9-3.9-2.8-6c-0.9-2.2-1.7-4-2.3-5.6c-0.6-1.6-1.2-3.3-1.9-5.1c-0.6-1.9-1.2-3.4-1.9-4.7c-0.6-1.2-1.2-3.1-1.9-5.6
		c-0.6-2.5-1.2-4.3-1.9-5.6c-0.6-1.2-0.9-2-0.9-2.3c0-0.3,0-0.6,0-0.9c0-0.3,0-0.8,0-1.4c0-0.6,0.3-1.2,0.9-1.9
		c0.6-0.6,1.6-1.2,2.8-1.9s2.5-1.1,3.7-1.4c1.2-0.3,2.8-0.5,4.7-0.5c1.9,0,3.3,0,4.2,0s2.2,0.5,3.7,1.4c1.6,0.9,2.6,1.7,3.3,2.3
		c0.6,0.6,1.2,1.2,1.9,1.9c0.6,0.6,1.2,1.6,1.9,2.8c0.6,1.2,0.9,2.2,0.9,2.8c0,0.6,0.2,0.9,0.5,0.9s0.5,0.3,0.5,0.9
		c0,0.6,0,1.4,0,2.3c0,0.9,0,1.6,0,1.9c0,0.3,0,0.8,0,1.4c0,0.6,0,1.2,0,1.9s0,1.2,0,1.9c0,0.6,0,1.4,0,2.3c0,0.9,0.2,1.7,0.5,2.3
		s0.5,1.4,0.5,2.3c0,0.9,0.2,1.7,0.5,2.3c0.3,0.6,0.6,1.2,0.9,1.9c0.3,0.6,0.5,1.1,0.5,1.4s0,0.6,0,0.9c0,0.3,0,0.6,0,0.9
		c0,0.3,0,0.6,0,0.9c0,0.3,0.3-1.1,0.9-4.2c0.6-3.1,1.1-5.6,1.4-7.4c0.3-1.9,0.6-3.6,0.9-5.1c0.3-1.6,0.6-2.6,0.9-3.3
		c0.3-0.6,0.6-1.1,0.9-1.4c0.3-0.3,0.6-0.6,0.9-0.9s0.6-0.6,0.9-0.9c0.3-0.3,0.6-0.5,0.9-0.5s0.9,0.3,1.9,0.9c0.9,0.6,2,1.1,3.3,1.4
		c1.2,0.3,2.8,1.2,4.7,2.8c1.9,1.6,3.4,2.9,4.7,4.2c1.2,1.2,2.2,2.5,2.8,3.7C1.1,4,1.7,5.1,2.3,6.1s0.9,1.6,0.9,1.9
		c0,0.3,0,0.6,0,0.9c0,0.3,0,0.6,0,0.9s0,0.6,0,0.9s0,0.8,0,1.4s0,1.1,0,1.4c0,0.3-0.3,0.6-0.9,0.9S1.4,15,1.4,15.4
		c0,0.3-0.2,0.5-0.5,0.5c-0.3,0-0.5,0.2-0.5,0.5c0,0.3-0.2,0.6-0.5,0.9c-0.3,0.3-0.5-0.2-0.5-1.4s0-2.5,0-3.7s0-2.8,0-4.7
		S-0.3,4,0,2.8C0.3,1.6,0.6,0,0.9-1.9c0.3-1.9,0.8-3.4,1.4-4.7c0.6-1.2,1.1-2.6,1.4-4.2C4-12.2,4.7-14,5.6-15.8s1.7-3.4,2.3-4.7
		s1.4-2.5,2.3-3.7c0.9-1.2,1.7-2.2,2.3-2.8c0.6-0.6,1.4-1.2,2.3-1.9c0.9-0.6,1.9-1.1,2.8-1.4c0.9-0.3,1.7-0.5,2.3-0.5
		c0.6,0,1.2,0,1.9,0c0.6,0,1.2,0.3,1.9,0.9c0.6,0.6,1.2,1.2,1.9,1.9c0.6,0.6,1.1,1.2,1.4,1.9c0.3,0.6,0.8,1.9,1.4,3.7
		c0.6,1.9,0.9,3.4,0.9,4.7c0,1.2,0.2,2.6,0.5,4.2s0.5,3.1,0.5,4.7s0,2.9,0,4.2s-0.2,2.5-0.5,3.7c-0.3,1.2-0.5,2.3-0.5,3.3
		c0,0.9-0.2,1.7-0.5,2.3c-0.3,0.6-0.5,1.2-0.5,1.9c0,0.6,0,1.1,0,1.4c0,0.3-0.2,0.6-0.5,0.9c-0.3,0.3-0.5,0.6-0.5,0.9s0,0.6,0,0.9
		s0,0,0-0.9c0-0.9,0-2,0-3.3c0-1.2,0.2-3.3,0.5-6c0.3-2.8,0.6-5,0.9-6.5s0.6-3.3,0.9-5.1s0.9-3.7,1.9-5.6s1.6-3.3,1.9-4.2
		c0.3-0.9,0.8-2,1.4-3.3c0.6-1.2,1.1-2.2,1.4-2.8c0.3-0.6,0.6-1.1,0.9-1.4c0.3-0.3,0.8-0.8,1.4-1.4c0.6-0.6,1.1-0.9,1.4-0.9
		c0.3,0,0.9,0,1.9,0s1.9,0,2.8,0s2,0.6,3.3,1.9c1.2,1.2,2.2,2.6,2.8,4.2s1.2,3.4,1.9,5.6c0.6,2.2,1.2,3.9,1.9,5.1
		c0.6,1.2,1.1,2.5,1.4,3.7c0.3,1.2,0.5,2.8,0.5,4.7c0,1.9,0,3.4,0,4.7c0,1.2-0.2,2.5-0.5,3.7C55.6,4,55.4,5,55.4,5.6
		c0,0.6,0,1.6,0,2.8c0,1.2-0.3,2-0.9,2.3s-0.9,0.6-0.9,0.9c0,0.3-0.2,0.8-0.5,1.4c-0.3,0.6-0.6,0.9-0.9,0.9s-0.5,0.3-0.5,0.9
		s-0.2,1.1-0.5,1.4c-0.3,0.3-0.6,0.6-0.9,0.9c-0.3,0.3-0.8,0.6-1.4,0.9s-1.2,0.6-1.9,0.9c-0.6,0.3-1.2,0.8-1.9,1.4
		c-0.6,0.6-1.2,1.1-1.9,1.4c-0.6,0.3-1.2,0.6-1.9,0.9c-0.6,0.3-1.6,0.8-2.8,1.4s-2.5,1.1-3.7,1.4c-1.2,0.3-2.6,0.8-4.2,1.4
		c-1.6,0.6-2.8,1.1-3.7,1.4c-0.9,0.3-2.2,0.5-3.7,0.5s-2.8,0.2-3.7,0.5c-0.9,0.3-1.7,0.6-2.3,0.9s-1.7,0.5-3.3,0.5
		c-1.6,0-2.8,0-3.7,0c-0.9,0-2,0-3.3,0c-1.2,0-2.3,0-3.3,0s-2,0-3.3,0s-2.3,0-3.3,0s-1.7,0-2.3,0s-1.7,0-3.3,0c-1.6,0-2.8,0-3.7,0
		c-0.9,0-2,0-3.3,0c-1.2,0-2.3-0.2-3.3-0.5s-1.6-0.6-1.9-0.9c-0.3-0.3-1.1-0.5-2.3-0.5s-2.2-0.2-2.8-0.5c-0.6-0.3-1.1-0.6-1.4-0.9
		c-0.3-0.3-0.6-0.5-0.9-0.5s-0.8-0.3-1.4-0.9c-0.6-0.6-1.1-0.9-1.4-0.9c-0.3,0-0.6,0-0.9,0s-0.8,0-1.4,0c-0.6,0-1.2,0-1.9,0
		c-0.6,0-1.2-0.3-1.9-0.9l-0.9-0.9"/>
</g>
<g id="Gfq6T3Gb2TszP3sPSV1DY" transform="matrix(1 0 0 1 95.01 165.64)">
	<path vector-effect="non-scaling-stroke" class="st1" d="M-49.4,60.5c0,0-0.3-1.9-0.9-5.6c-0.6-3.7-0.9-7.4-0.9-11.2
		c0-3.7,0-8.8,0-15.4s0-12.3,0-17.2s0.2-10.9,0.5-17.7c0.3-6.8,0.9-11.9,1.9-15.4s1.6-6.4,1.9-8.8s0.6-4.7,0.9-6.5
		c0.3-1.9,0.5-3.1,0.5-3.7s0.2-1.1,0.5-1.4s0.6-0.6,0.9-0.9c0.3-0.3,0.6-0.2,0.9,0.5c0.3,0.6,0.9,1.6,1.9,2.8
		c0.9,1.2,2,4.7,3.3,10.2c1.2,5.6,2.5,10.7,3.7,15.4c1.2,4.7,2.2,9,2.8,13c0.6,4,1.2,8.5,1.9,13.5c0.6,5,1.1,8.2,1.4,9.8
		s0.6,3.3,0.9,5.1c0.3,1.9,0.5,3.3,0.5,4.2s0.2,1.4,0.5,1.4c0.3,0,0.6,0,0.9,0c0.3,0,0.5,0.2,0.5,0.5c0,0.3,0,0.6,0,0.9
		c0,0.3,0,0.3,0,0c0-0.3,0-0.8,0-1.4c0-0.6,0.2-2.3,0.5-5.1s0.6-5.7,0.9-8.8s0.6-6.8,0.9-11.2c0.3-4.3,0.5-9.5,0.5-15.4
		c0-5.9,0.2-10.4,0.5-13.5s0.8-5.9,1.4-8.4c0.6-2.5,1.1-4.2,1.4-5.1c0.3-0.9,0.6-1.7,0.9-2.3c0.3-0.6,0.5-1.1,0.5-1.4s0-0.6,0-0.9
		s0.2-0.5,0.5-0.5c0.3,0,0.6,0,0.9,0s0.6,0,0.9,0c0.3,0,1.1,0.6,2.3,1.9c1.2,1.2,2.3,2.5,3.3,3.7c0.9,1.2,2,3.4,3.3,6.5
		c1.2,3.1,2.2,5.9,2.8,8.4c0.6,2.5,1.2,5.3,1.9,8.4s1.4,7.3,2.3,12.6c0.9,5.3,1.4,8.7,1.4,10.2c0,1.6,0.2,2.9,0.5,4.2
		c0.3,1.2,0.5,2,0.5,2.3s0,0.6,0,0.9s0.2,0.2,0.5-0.5s0.5-1.7,0.5-3.3c0-1.6,0.2-5.4,0.5-11.6C4.5-2.5,5-8.5,5.6-14.4
		C6.2-20.3,7-27,7.9-34.4c0.9-7.4,1.7-12.6,2.3-15.4c0.6-2.8,1.4-5.3,2.3-7.4c0.9-2.2,1.6-3.9,1.9-5.1s0.5-2,0.5-2.3
		c0-0.3,0.2-0.6,0.5-0.9c0.3-0.3,0.6-0.5,0.9-0.5c0.3,0,0.6,0.8,0.9,2.3c0.3,1.6,0.8,4.7,1.4,9.3c0.6,4.7,0.9,8.8,0.9,12.6
		c0,3.7,0,7.8,0,12.1c0,4.3,0,9.3,0,14.9c0,5.6,0,9.6,0,12.1s0,5,0,7.4c0,2.5,0,4.3,0,5.6s0,2.2,0,2.8s0,1.1,0,1.4
		c0,0.3,0,0.6,0,0.9s0-0.2,0-1.4c0-1.2,0.3-4,0.9-8.4c0.6-4.3,1.2-9,1.9-14c0.6-5,1.6-10.1,2.8-15.4c1.2-5.3,2.2-8.8,2.8-10.7
		c0.6-1.9,1.2-3.6,1.9-5.1c0.6-1.6,1.2-3.1,1.9-4.7s1.2-2.8,1.9-3.7c0.6-0.9,1.2-1.7,1.9-2.3c0.6-0.6,0.9-1.1,0.9-1.4
		s0.2-0.6,0.5-0.9c0.3-0.3,0.6-0.5,0.9-0.5s0.8,0,1.4,0s1.4,0.5,2.3,1.4c0.9,0.9,1.9,2.2,2.8,3.7c0.9,1.6,1.9,3.4,2.8,5.6
		c0.9,2.2,1.9,4.7,2.8,7.4s1.6,5.1,1.9,7c0.3,1.9,0.6,4,0.9,6.5c0.3,2.5,0.5,4.7,0.5,6.5c0,1.9,0,4,0,6.5c0,2.5,0,4.7,0,6.5
		c0,1.9,0,3.6,0,5.1c0,1.6-0.5,3.7-1.4,6.5c-0.9,2.8-1.6,5-1.9,6.5c-0.3,1.6-0.8,3.1-1.4,4.7c-0.6,1.6-0.9,2.6-0.9,3.3
		c0,0.6-0.3,1.4-0.9,2.3c-0.6,0.9-0.9,1.7-0.9,2.3c0,0.6-0.2,1.1-0.5,1.4s-0.9,0.8-1.9,1.4S41.7,33,41.4,34
		c-0.3,0.9-1.2,2.2-2.8,3.7c-1.6,1.6-2.9,2.9-4.2,4.2c-1.2,1.2-2.5,2.5-3.7,3.7c-1.2,1.2-3.1,2.6-5.6,4.2c-2.5,1.6-4.5,2.9-6.1,4.2
		c-1.6,1.2-3.6,2.3-6.1,3.3c-2.5,0.9-4.5,1.7-6.1,2.3c-1.6,0.6-2.8,1.1-3.7,1.4c-0.9,0.3-2,0.6-3.3,0.9s-2,0.5-2.3,0.5
		c-0.3,0-0.8,0-1.4,0c-0.6,0-1.2,0.2-1.9,0.5c-0.6,0.3-1.1,0.5-1.4,0.5c-0.3,0-0.9,0.2-1.9,0.5c-0.9,0.3-1.6,0.5-1.9,0.5
		s-0.9,0-1.9,0c-0.9,0-1.7,0.2-2.3,0.5c-0.6,0.3-1.2,0.6-1.9,0.9c-0.6,0.3-1.2,0.5-1.9,0.5c-0.6,0-1.2,0-1.9,0c-0.6,0-1.4,0-2.3,0
		c-0.9,0-1.7,0-2.3,0s-1.4,0-2.3,0s-1.7,0-2.3,0c-0.6,0-1.6,0-2.8,0c-1.2,0-2.2,0-2.8,0s-1.1,0-1.4,0c-0.3,0-0.9,0-1.9,0
		c-0.9,0-1.7,0-2.3,0s-1.2,0-1.9,0s-1.2-0.2-1.9-0.5s-1.2-0.6-1.9-0.9c-0.6-0.3-1.1-0.5-1.4-0.5s-0.6,0-0.9,0
		c-0.3,0-0.6-0.2-0.9-0.5c-0.3-0.3-0.6-0.6-0.9-0.9c-0.3-0.3-0.8-0.5-1.4-0.5h-0.9"/>
</g>
<g id="wEVobVdnxvsrWyzfyAKXo" transform="matrix(1 0 0 1 95.01 205.01)">
	<path vector-effect="non-scaling-stroke" class="st2" d="M-54,29.8c0,0,1.2,0,3.7,0c2.5,0,5.4,0,8.8,0c3.4,0,6.5,0,9.3,0
		s5.9,0,9.3,0s5.7,0,7,0s2.6,0,4.2,0s2.6,0,3.3,0c0.6,0,1.2,0,1.9,0c0.6,0,1.2,0,1.9,0c0.6,0,1.6,0,2.8,0c1.2,0,2.6,0,4.2,0
		s3.1,0,4.7,0s3.4,0,5.6,0s3.9-0.2,5.1-0.5c1.2-0.3,2.6-0.6,4.2-0.9c1.6-0.3,2.9-0.5,4.2-0.5c1.2,0,2.5-0.2,3.7-0.5
		c1.2-0.3,2.5-0.6,3.7-0.9c1.2-0.3,2.5-0.6,3.7-0.9c1.2-0.3,2.3-0.6,3.3-0.9c0.9-0.3,2-0.8,3.3-1.4c1.2-0.6,2.3-0.9,3.3-0.9
		c0.9,0,1.6-0.2,1.9-0.5c0.3-0.3,0.8-0.6,1.4-0.9c0.6-0.3,1.4-0.5,2.3-0.5c0.9,0,1.6-0.2,1.9-0.5c0.3-0.3,0.8-0.6,1.4-0.9
		c0.6-0.3,1.4-0.8,2.3-1.4s1.4-1.2,1.4-1.9c0-0.6,0.3-1.2,0.9-1.9c0.6-0.6,1.1-1.2,1.4-1.9c0.3-0.6,0.5-1.6,0.5-2.8
		s-0.2-3.1-0.5-5.6c-0.3-2.5-0.8-4.7-1.4-6.5c-0.6-1.9-1.6-3.9-2.8-6c-1.2-2.2-2.3-4.2-3.3-6c-0.9-1.9-1.9-3.6-2.8-5.1
		s-1.6-2.6-1.9-3.3c-0.3-0.6-0.6-1.2-0.9-1.9c-0.3-0.6-0.5-1.1-0.5-1.4s-0.2-0.6-0.5-0.9s-0.6-0.6-0.9-0.9c-0.3-0.3-0.5-0.6-0.5-0.9
		c0-0.3-0.3-0.5-0.9-0.5c-0.6,0-1.1,0-1.4,0s-0.6,0-0.9,0c-0.3,0-0.6,0-0.9,0c-0.3,0-0.6,0-0.9,0s-0.6,0.2-0.9,0.5
		c-0.3,0.3-0.6,0.6-0.9,0.9c-0.3,0.3-0.5,0.8-0.5,1.4c0,0.6,0,1.2,0,1.9c0,0.6-0.2,1.2-0.5,1.9c-0.3,0.6-0.5,1.2-0.5,1.9
		c0,0.6,0,1.4,0,2.3c0,0.9,0,2,0,3.3c0,1.2,0,2.3,0,3.3s0,1.7,0,2.3s0,1.4,0,2.3s0,1.7,0,2.3s0,1.1,0,1.4c0,0.3,0,0.8,0,1.4
		s0,1.1,0,1.4s0,0.6,0,0.9s0,0.6,0,0.9s0,0.6,0,0.9s0,0.6,0,0.9s0,0.6,0,0.9s0,0.6,0,0.9c0,0.3,0,0.8,0,1.4s0,1.1,0,1.4
		c0,0.3-0.2,0.5-0.5,0.5s-0.5,0.2-0.5,0.5s0,0.6,0,0.9s-0.2,0.5-0.5,0.5c-0.3,0-0.6,0-0.9,0c-0.3,0-0.6-0.2-0.9-0.5S34.3,8.2,34,7.9
		c-0.3-0.3-0.6-0.6-0.9-0.9c-0.3-0.3-0.6-0.6-0.9-0.9c-0.3-0.3-0.6-0.6-0.9-0.9c-0.3-0.3-0.6-0.6-0.9-0.9c-0.3-0.3-0.8-0.8-1.4-1.4
		c-0.6-0.6-0.9-1.2-0.9-1.9S27.8,0,27.5,0c-0.3,0-0.6-0.5-0.9-1.4s-0.6-1.6-0.9-1.9C25.3-3.6,25-4,24.7-4.7S24.1-6,23.7-7
		c-0.3-0.9-0.6-1.6-0.9-1.9c-0.3-0.3-0.5-0.8-0.5-1.4s-0.2-1.2-0.5-1.9c-0.3-0.6-0.5-1.2-0.5-1.9c0-0.6-0.2-1.2-0.5-1.9
		c-0.3-0.6-0.6-1.1-0.9-1.4c-0.3-0.3-0.6-0.8-0.9-1.4c-0.3-0.6-0.5-1.2-0.5-1.9c0-0.6-0.2-1.2-0.5-1.9c-0.3-0.6-0.6-1.1-0.9-1.4
		c-0.3-0.3-0.6-0.8-0.9-1.4c-0.3-0.6-0.6-0.9-0.9-0.9s-0.6,0-0.9,0c-0.3,0-0.6,0-0.9,0c-0.3,0-0.6,0-0.9,0c-0.3,0-0.6,0-0.9,0
		c-0.3,0-0.5,0.2-0.5,0.5s0,0.6,0,0.9s-0.2,0.5-0.5,0.5c-0.3,0-0.6,0.3-0.9,0.9c-0.3,0.6-0.5,1.1-0.5,1.4S9-21.1,8.4-20.5
		c-0.6,0.6-0.9,1.2-0.9,1.9s0,1.2,0,1.9c0,0.6,0,1.2,0,1.9c0,0.6,0,1.2,0,1.9s0,1.2,0,1.9s0,1.1,0,1.4c0,0.3,0,0.9,0,1.9
		s0,1.6,0,1.9s0,0.8,0,1.4s0,1.2,0,1.9s0,1.2,0,1.9s0,1.2,0,1.9S7.3,1.9,7,1.9S6.5,2.2,6.5,2.8S6.4,4,6.1,4.7S5.3,5.9,4.7,6.5
		S3.7,7.8,3.7,8.4S3.6,9.3,3.3,9.3s-0.6,0-0.9,0S1.9,9.5,1.9,9.8s-0.3,0.6-0.9,0.9S0,11.3,0,11.6s-0.3,0.6-0.9,0.9
		C-1.6,12.9-2.2,13-2.8,13c-0.6,0-1.1-0.2-1.4-0.5c-0.3-0.3-0.6-0.6-0.9-0.9s-0.8-0.6-1.4-0.9s-0.9-0.6-0.9-0.9s-0.3-0.6-0.9-0.9
		C-9,8.5-9.5,8.1-9.8,7.4c-0.3-0.6-0.6-1.2-0.9-1.9C-11,5-11.3,4.3-11.6,3.7c-0.3-0.6-0.6-1.4-0.9-2.3C-12.9,0.5-13-0.3-13-0.9
		s-0.2-0.9-0.5-0.9c-0.3,0-0.6-0.3-0.9-0.9c-0.3-0.6-0.5-1.1-0.5-1.4c0-0.3-0.2-0.6-0.5-0.9c-0.3-0.3-0.6-0.8-0.9-1.4
		c-0.3-0.6-0.5-1.2-0.5-1.9s-0.2-1.2-0.5-1.9s-0.6-1.2-0.9-1.9c-0.3-0.6-0.5-1.1-0.5-1.4s-0.3-0.8-0.9-1.4c-0.6-0.6-0.9-1.1-0.9-1.4
		c0-0.3-0.2-0.6-0.5-0.9s-0.6-0.6-0.9-0.9s-0.8-0.8-1.4-1.4c-0.6-0.6-1.1-0.9-1.4-0.9c-0.3,0-0.6,0-0.9,0s-0.6,0-0.9,0
		c-0.3,0-0.6,0-0.9,0s-0.6,0-0.9,0c-0.3,0-0.6,0.3-0.9,0.9c-0.3,0.6-0.5,1.1-0.5,1.4s-0.2,0.6-0.5,0.9s-0.6,0.8-0.9,1.4
		c-0.3,0.6-0.5,1.2-0.5,1.9c0,0.6,0,1.1,0,1.4s0,0.8,0,1.4s0,1.2,0,1.9s0,1.2,0,1.9s0,1.4,0,2.3s0,1.7,0,2.3s0,1.2,0,1.9
		s0,1.2,0,1.9s0,1.1,0,1.4s0,0.6,0,0.9s-0.2,0.6-0.5,0.9c-0.3,0.3-0.6,0.6-0.9,0.9c-0.3,0.3-0.5,0.8-0.5,1.4s-0.2,1.1-0.5,1.4
		c-0.3,0.3-0.6,0.6-0.9,0.9c-0.3,0.3-0.6,0.5-0.9,0.5s-0.6,0.2-0.9,0.5c-0.3,0.3-0.8,0.5-1.4,0.5c-0.6,0-1.2,0-1.9,0
		c-0.6,0-1.2-0.2-1.9-0.5c-0.6-0.3-1.1-0.5-1.4-0.5c-0.3,0-0.8-0.3-1.4-0.9c-0.6-0.6-1.1-1.1-1.4-1.4c-0.3-0.3-0.5-0.6-0.5-0.9
		c0-0.3-0.3-0.6-0.9-0.9c-0.6-0.3-0.9-0.6-0.9-0.9c0-0.3-0.2-0.8-0.5-1.4s-0.6-1.1-0.9-1.4c-0.3-0.3-0.5-0.8-0.5-1.4
		s-0.2-1.1-0.5-1.4c-0.3-0.3-0.6-0.6-0.9-0.9c-0.3-0.3-0.5-0.6-0.5-0.9s-0.2-0.8-0.5-1.4s-0.6-0.9-0.9-0.9c-0.3,0-0.5-0.3-0.5-0.9
		s-0.2-1.1-0.5-1.4c-0.3-0.3-0.6-0.6-0.9-0.9c-0.3-0.3-0.6-0.5-0.9-0.5c-0.3,0-0.6,0-0.9,0c-0.3,0-0.6,0-0.9,0c-0.3,0-0.6,0-0.9,0
		s-0.6,0-0.9,0c-0.3,0-0.6,0.5-0.9,1.4C-61.3-7-61.5-6.4-61.5-6s0,0.8,0,1.4s-0.2,1.2-0.5,1.9c-0.3,0.6-0.5,1.2-0.5,1.9s0,1.2,0,1.9
		s0,1.4,0,2.3s0.2,1.7,0.5,2.3c0.3,0.6,0.5,1.2,0.5,1.9c0,0.6,0,1.2,0,1.9c0,0.6,0.2,1.1,0.5,1.4c0.3,0.3,0.6,0.8,0.9,1.4
		c0.3,0.6,0.5,1.2,0.5,1.9s0,1.2,0,1.9c0,0.6,0,1.2,0,1.9c0,0.6,0,1.2,0,1.9c0,0.6,0,1.1,0,1.4s0.2,0.5,0.5,0.5s0.5,0.2,0.5,0.5
		s0,0.6,0,0.9s0,0.6,0,0.9s0.2,0.8,0.5,1.4c0.3,0.6,0.5,1.1,0.5,1.4s0,0.6,0,0.9s0,0.8,0,1.4v0.9"/>
</g>
<g id="e1W6Lah-f7uGrFQnTWZz3" transform="matrix(2.45 0 0 2.45 54.63 135.38)">
	<path vector-effect="non-scaling-stroke" class="st3" d="M18.2-6.1c0,0-1.7,0.6-5.1,1.9c-1.6,0.6-3.2,1.1-4.9,1.6L18.2-6.1z
		 M8.2-2.6C8.2-2.6,8.2-2.6,8.2-2.6L8.2-2.6L8.2-2.6z M0.9,0l13.5,12.1c-0.6-0.3-1-0.4-1.3-0.4c-0.3,0-0.6-0.3-0.9-0.9
		c-0.3-0.6-0.9-1.2-1.9-1.9C9.3,8.2,7.9,7.1,6.1,5.6C4.2,4,2.2,2.3,0,0.5c0,0-0.1-0.1-0.1-0.1l-2,0.7c-0.1,0.1-0.1,0.2-0.2,0.3
		c-0.6,1.2-0.9,2.2-0.9,2.8S-3.6,5.4-4.2,6c-0.6,0.6-0.9,1.1-0.9,1.4s0,0.6,0,0.9c0,0.3,0,0.6,0,0.9s-0.2,0.6-0.5,0.9
		c-0.3,0.3-0.5,0.6-0.5,0.9s-0.2,0.8-0.5,1.4L-7,13.5L-4,1.7l-7.6,2.7c0.3-0.2,0.6-0.4,0.9-0.7C-9.5,2.8-7.9,2-6.1,1.4
		c0.6-0.2,1.4-0.4,2.3-0.7l0.6-2.4c-0.2-0.1-0.3-0.1-0.5-0.2c-0.9-0.3-2-0.9-3.3-1.9c-1.2-0.9-2.5-1.6-3.7-1.9s-2-0.6-2.3-0.9
		C-13.3-6.8-13.5-7-13.5-7l9.3,3.2c-0.6-0.7-1.2-1.5-1.8-2.2c-0.1-0.2-0.2-0.3-0.4-0.5l3.6,3.2l0,0l3.2-13c0,0,0,0.3,0,0.9
		c0,0.6,0,1.2,0,1.9s0,1.4,0,2.3s0,1.9,0,2.8s0,1.9,0,2.8S0.3-3.9,0-3.3C-0.1-3-0.3-2.7-0.4-2.5l3.7,1.3C5-1.6,6.6-2.1,8.2-2.6
		L3.8-1l12.5,4.3c-0.6,0-2,0-2.3,0s-0.8,0-1.4,0s-1.1,0-1.4,0s-0.6,0-0.9,0c-0.3,0-0.6-0.2-0.9-0.5S8.7,2.3,8.4,2.3
		C8.1,2.3,7.6,2.2,7,1.9C6.4,1.5,5.9,1.4,5.6,1.4s-0.6,0-0.9,0c-0.3,0-0.8-0.2-1.4-0.5C2.6,0.6,2.2,0.3,1.9,0
		C1.8-0.1,1.7-0.2,1.6-0.3L0.9,0z M0.4-0.4c0,0,0.1,0,0.1,0C0.4-0.5,0.4-0.5,0.4-0.4L0.4-0.4z M-0.7-0.2c-0.1-0.1-0.2-0.2-0.4-0.3
		c-0.1,0-0.2,0-0.3-0.1c-0.1,0.2-0.2,0.4-0.3,0.7C-1.4,0-1-0.1-0.7-0.2L-0.7-0.2z M-13.5,5.1c-0.1,0-0.2,0-0.3,0l2.2-0.8
		C-12.4,4.9-13.1,5.1-13.5,5.1L-13.5,5.1z M-13.8,5.1l-2,0.7c0.1-0.1,0.3-0.2,0.4-0.2C-14.8,5.3-14.3,5.2-13.8,5.1z M-16.3,6.5
		c0,0.3-0.2,0.5-0.5,0.5c-0.3,0-0.8,0-1.4,0h-0.9l3.3-1.2C-16.1,6-16.3,6.3-16.3,6.5L-16.3,6.5z M-12.6-12.6c2.3,1.7,4.4,3.8,6.2,6
		l-9.9-8.8C-16.3-15.4-15.1-14.4-12.6-12.6L-12.6-12.6z M14.4,12.1c0.6,0.3,1.1,0.6,1.4,0.9c0.3,0.3,0.6,0.6,0.9,0.9
		c0.3,0.3,0.8,0.8,1.4,1.4l0.9,0.9L14.4,12.1C14.4,12.1,14.4,12.1,14.4,12.1z"/>
</g>
<g id="zqFxi9jzA-482RbV_hDjw" transform="matrix(2.45 0 0 2.45 95.01 115.6)">
	<path vector-effect="non-scaling-stroke" class="st3" d="M18.2-6.1c0,0-1.7,0.6-5.1,1.9c-1.6,0.6-3.2,1.1-4.9,1.6L18.2-6.1z
		 M8.2-2.6C8.2-2.6,8.2-2.6,8.2-2.6L8.2-2.6L8.2-2.6z M0.9,0l13.5,12.1c-0.6-0.3-1-0.4-1.3-0.4c-0.3,0-0.6-0.3-0.9-0.9
		c-0.3-0.6-0.9-1.2-1.9-1.9C9.3,8.2,7.9,7.1,6.1,5.6C4.2,4,2.2,2.3,0,0.5c0,0-0.1-0.1-0.1-0.1l-2,0.7c-0.1,0.1-0.1,0.2-0.2,0.3
		c-0.6,1.2-0.9,2.2-0.9,2.8S-3.6,5.4-4.2,6c-0.6,0.6-0.9,1.1-0.9,1.4s0,0.6,0,0.9c0,0.3,0,0.6,0,0.9s-0.2,0.6-0.5,0.9
		c-0.3,0.3-0.5,0.6-0.5,0.9s-0.2,0.8-0.5,1.4L-7,13.5L-4,1.7l-7.6,2.7c0.3-0.2,0.6-0.4,0.9-0.7C-9.5,2.8-7.9,2-6.1,1.4
		c0.6-0.2,1.4-0.4,2.3-0.7l0.6-2.4c-0.2-0.1-0.3-0.1-0.5-0.2c-0.9-0.3-2-0.9-3.3-1.9c-1.2-0.9-2.5-1.6-3.7-1.9s-2-0.6-2.3-0.9
		C-13.3-6.8-13.5-7-13.5-7l9.3,3.2c-0.6-0.7-1.2-1.5-1.8-2.2c-0.1-0.2-0.2-0.3-0.4-0.5l3.6,3.2l0,0l3.2-13c0,0,0,0.3,0,0.9
		s0,1.2,0,1.9c0,0.6,0,1.4,0,2.3s0,1.9,0,2.8c0,0.9,0,1.9,0,2.8S0.3-3.9,0-3.3C-0.1-3-0.3-2.7-0.4-2.5l3.7,1.3
		C5-1.6,6.6-2.1,8.2-2.6L3.8-1l12.5,4.3c-0.6,0-2,0-2.3,0s-0.8,0-1.4,0s-1.1,0-1.4,0s-0.6,0-0.9,0c-0.3,0-0.6-0.2-0.9-0.5
		S8.7,2.3,8.4,2.3C8.1,2.3,7.6,2.2,7,1.9C6.4,1.5,5.9,1.4,5.6,1.4s-0.6,0-0.9,0c-0.3,0-0.8-0.2-1.4-0.5C2.6,0.6,2.2,0.3,1.9,0
		C1.8-0.1,1.7-0.2,1.6-0.3L0.9,0z M0.4-0.4c0,0,0.1,0,0.1,0C0.4-0.5,0.4-0.5,0.4-0.4L0.4-0.4z M-0.7-0.2c-0.1-0.1-0.2-0.2-0.4-0.3
		c-0.1,0-0.2,0-0.3-0.1c-0.1,0.2-0.2,0.4-0.3,0.7C-1.4,0-1-0.1-0.7-0.2L-0.7-0.2z M-13.5,5.1c-0.1,0-0.2,0-0.3,0l2.2-0.8
		C-12.4,4.9-13.1,5.1-13.5,5.1L-13.5,5.1z M-13.8,5.1l-2,0.7c0.1-0.1,0.3-0.2,0.4-0.2C-14.8,5.3-14.3,5.2-13.8,5.1z M-16.3,6.5
		c0,0.3-0.2,0.5-0.5,0.5c-0.3,0-0.8,0-1.4,0h-0.9l3.3-1.2C-16.1,6-16.3,6.3-16.3,6.5L-16.3,6.5z M-12.6-12.6c2.3,1.7,4.4,3.8,6.2,6
		l-9.9-8.8C-16.3-15.4-15.1-14.4-12.6-12.6L-12.6-12.6z M14.4,12.1c0.6,0.3,1.1,0.6,1.4,0.9c0.3,0.3,0.6,0.6,0.9,0.9
		c0.3,0.3,0.8,0.8,1.4,1.4l0.9,0.9L14.4,12.1C14.4,12.1,14.4,12.1,14.4,12.1z"/>
</g>
<g id="zF_DusgmovymhaVSjugfd" transform="matrix(2.45 0 0 2.45 148.58 135.42)">
	<path vector-effect="non-scaling-stroke" class="st3" d="M18.2-6.1c0,0-1.7,0.6-5.1,1.9c-1.6,0.6-3.2,1.1-4.9,1.6L18.2-6.1z
		 M8.2-2.6C8.2-2.6,8.2-2.6,8.2-2.6L8.2-2.6L8.2-2.6z M0.9,0l13.5,12.1c-0.6-0.3-1-0.4-1.3-0.4c-0.3,0-0.6-0.3-0.9-0.9
		c-0.3-0.6-0.9-1.2-1.9-1.9C9.3,8.2,7.9,7.1,6.1,5.6C4.2,4,2.2,2.3,0,0.5c0,0-0.1-0.1-0.1-0.1l-2,0.7c-0.1,0.1-0.1,0.2-0.2,0.3
		c-0.6,1.2-0.9,2.2-0.9,2.8S-3.6,5.4-4.2,6c-0.6,0.6-0.9,1.1-0.9,1.4s0,0.6,0,0.9c0,0.3,0,0.6,0,0.9s-0.2,0.6-0.5,0.9
		c-0.3,0.3-0.5,0.6-0.5,0.9s-0.2,0.8-0.5,1.4L-7,13.5L-4,1.7l-7.6,2.7c0.3-0.2,0.6-0.4,0.9-0.7C-9.5,2.8-7.9,2-6.1,1.4
		c0.6-0.2,1.4-0.4,2.3-0.7l0.6-2.4c-0.2-0.1-0.3-0.1-0.5-0.2c-0.9-0.3-2-0.9-3.3-1.9c-1.2-0.9-2.5-1.6-3.7-1.9s-2-0.6-2.3-0.9
		C-13.3-6.8-13.5-7-13.5-7l9.3,3.2c-0.6-0.7-1.2-1.5-1.8-2.2c-0.1-0.2-0.2-0.3-0.4-0.5l3.6,3.2l0,0l3.2-13c0,0,0,0.3,0,0.9
		s0,1.2,0,1.9c0,0.6,0,1.4,0,2.3s0,1.9,0,2.8s0,1.9,0,2.8S0.3-3.9,0-3.3C-0.1-3-0.3-2.7-0.4-2.5l3.7,1.3C5-1.6,6.6-2.1,8.2-2.6
		L3.8-1l12.5,4.3c-0.6,0-2,0-2.3,0s-0.8,0-1.4,0s-1.1,0-1.4,0s-0.6,0-0.9,0c-0.3,0-0.6-0.2-0.9-0.5S8.7,2.3,8.4,2.3
		C8.1,2.3,7.6,2.2,7,1.9C6.4,1.5,5.9,1.4,5.6,1.4s-0.6,0-0.9,0c-0.3,0-0.8-0.2-1.4-0.5C2.6,0.6,2.2,0.3,1.9,0
		C1.8-0.1,1.7-0.2,1.6-0.3L0.9,0z M0.4-0.4c0,0,0.1,0,0.1,0C0.4-0.5,0.4-0.5,0.4-0.4L0.4-0.4z M-0.7-0.2c-0.1-0.1-0.2-0.2-0.4-0.3
		c-0.1,0-0.2,0-0.3-0.1c-0.1,0.2-0.2,0.4-0.3,0.7C-1.4,0-1-0.1-0.7-0.2L-0.7-0.2z M-13.5,5.1c-0.1,0-0.2,0-0.3,0l2.2-0.8
		C-12.4,4.9-13.1,5.1-13.5,5.1L-13.5,5.1z M-13.8,5.1l-2,0.7c0.1-0.1,0.3-0.2,0.4-0.2C-14.8,5.3-14.3,5.2-13.8,5.1z M-16.3,6.5
		c0,0.3-0.2,0.5-0.5,0.5c-0.3,0-0.8,0-1.4,0h-0.9l3.3-1.2C-16.1,6-16.3,6.3-16.3,6.5L-16.3,6.5z M-12.6-12.6c2.3,1.7,4.4,3.8,6.2,6
		l-9.9-8.8C-16.3-15.4-15.1-14.4-12.6-12.6L-12.6-12.6z M14.4,12.1c0.6,0.3,1.1,0.6,1.4,0.9c0.3,0.3,0.6,0.6,0.9,0.9
		c0.3,0.3,0.8,0.8,1.4,1.4l0.9,0.9L14.4,12.1C14.4,12.1,14.4,12.1,14.4,12.1z"/>
</g>
<g id="_x35_gc2LHkyfkYgLauqXDpch" transform="matrix(1 0 0 1 326.35 220.69)">
	<path vector-effect="non-scaling-stroke" class="st4" d="M53.1-29.3c0,0-2.8,0-8.4,0c-5.6,0-11.5,0-17.7,0c-6.2,0-12.3,0-18.2,0
		c-5.9,0-10.6,0.2-14,0.5c-3.4,0.3-6.8,0.5-10.2,0.5c-3.4,0-6.1,0-7.9,0c-1.9,0-4,0.2-6.5,0.5c-2.5,0.3-4.7,0.6-6.5,0.9
		s-3.3,0.6-4.2,0.9c-0.9,0.3-2.5,0.9-4.7,1.9c-2.2,0.9-3.9,1.7-5.1,2.3c-1.2,0.6-2.8,1.2-4.7,1.9c-1.9,0.6-3.1,0.9-3.7,0.9
		c-0.6,0-1.2,0.2-1.9,0.5s-1.2,0.6-1.9,0.9c-0.6,0.3-1.1,0.8-1.4,1.4c-0.3,0.6-0.5,1.1-0.5,1.4c0,0.3,0.6,1.1,1.9,2.3
		c1.2,1.2,2.5,2.3,3.7,3.3c1.2,0.9,2.9,1.7,5.1,2.3c2.2,0.6,4.2,0.9,6.1,0.9c1.9,0,3.7,0,5.6,0c1.9,0,4-0.2,6.5-0.5
		c2.5-0.3,4.5-0.6,6.1-0.9c1.6-0.3,3.4-0.8,5.6-1.4c2.2-0.6,3.9-1.2,5.1-1.9c1.2-0.6,2.5-0.9,3.7-0.9c1.2,0,2.6-0.2,4.2-0.5
		S-7.9-12.7-7-13c0.9-0.3,2.3-0.5,4.2-0.5c1.9,0,3.4-0.2,4.7-0.5c1.2-0.3,2.5-0.5,3.7-0.5c1.2,0,2.8-0.2,4.7-0.5
		c1.9-0.3,3.6-0.5,5.1-0.5s3.3,0,5.1,0c1.9,0,3.3,0,4.2,0s2.3,0,4.2,0c1.9,0,3.4,0,4.7,0c1.2,0,2.3,0,3.3,0c0.9,0,2.2,0,3.7,0
		c1.6,0,2.6,0.2,3.3,0.5s1.2,0.5,1.9,0.5c0.6,0,1.2,0,1.9,0s1.1,0,1.4,0c0.3,0,0.8,0.2,1.4,0.5c0.6,0.3,1.2,0.5,1.9,0.5s1.1,0,1.4,0
		s0.6,0.2,0.9,0.5c0.3,0.3,0.6,0.5,0.9,0.5s0.5,0.2,0.5,0.5s-0.3,0.6-0.9,0.9c-0.6,0.3-1.7,0.6-3.3,0.9c-1.6,0.3-3.7,0.8-6.5,1.4
		c-2.8,0.6-5.3,1.2-7.4,1.9c-2.2,0.6-4.7,1.2-7.4,1.9c-2.8,0.6-5.1,0.9-7,0.9c-1.9,0-4,0.2-6.5,0.5c-2.5,0.3-4.7,0.5-6.5,0.5
		c-1.9,0-4,0-6.5,0c-2.5,0-4.7,0-6.5,0c-1.9,0-3.4,0-4.7,0c-1.2,0-2.3,0.2-3.3,0.5s-2.2,0.5-3.7,0.5c-1.6,0-2.9,0.3-4.2,0.9
		c-1.2,0.6-2.6,0.9-4.2,0.9s-2.8,0.2-3.7,0.5c-0.9,0.3-2.3,0.5-4.2,0.5c-1.9,0-3.9,0.2-6.1,0.5c-2.2,0.3-4,0.6-5.6,0.9
		c-1.6,0.3-3.3,0.5-5.1,0.5c-1.9,0-3.4,0.2-4.7,0.5s-2.2,0.5-2.8,0.5s-1.4,0-2.3,0s-1.6,0-1.9,0s-0.6,0-0.9,0c-0.3,0-0.6,0-0.9,0
		c-0.3,0-0.6,0-0.9,0s-0.5,0.2-0.5,0.5s0.2,0.6,0.5,0.9s1.1,0.5,2.3,0.5s3.3,0.2,6.1,0.5C-50.7,5.9-46.7,6-41.4,6s9.5,0,12.6,0
		c3.1,0,5.9,0,8.4,0s4.5,0,6.1,0c1.6,0,3.4,0.2,5.6,0.5C-6.7,6.8-4.7,7-2.8,7c1.9,0,3.6,0,5.1,0c1.6,0,3.4,0,5.6,0c2.2,0,4,0,5.6,0
		c1.6,0,3.3-0.2,5.1-0.5c1.9-0.3,4.2-0.6,7-0.9c2.8-0.3,4.8-0.5,6.1-0.5c1.2,0,2.9,0,5.1,0s3.9,0,5.1,0s2.6,0,4.2,0
		c1.6,0,2.9,0,4.2,0s2.3,0,3.3,0s2.2,0,3.7,0c1.6,0,2.8,0.2,3.7,0.5C61.9,5.9,62.9,6,63.8,6c0.9,0,1.7,0,2.3,0s1.1,0.2,1.4,0.5
		C67.8,6.8,68.1,7,68.4,7s0.5,0.2,0.5,0.5S68.3,8.2,67,8.8c-1.2,0.6-3.1,1.1-5.6,1.4c-2.5,0.3-6.2,0.8-11.2,1.4
		c-5,0.6-9.6,1.1-14,1.4c-4.3,0.3-8.5,0.5-12.6,0.5c-4,0-7,0-8.8,0c-1.9,0-3.6,0.2-5.1,0.5c-1.6,0.3-2.9,0.5-4.2,0.5
		c-1.2,0-2.5,0-3.7,0c-1.2,0-3.1,0.3-5.6,0.9c-2.5,0.6-4.7,1.1-6.5,1.4c-1.9,0.3-5.3,0.5-10.2,0.5s-9.5-0.2-13.5-0.5
		c-4-0.3-7.4-0.5-10.2-0.5c-2.8,0-5.1,0-7,0c-1.9,0-3.1,0-3.7,0s-1.2,0-1.9,0s-1.2,0-1.9,0c-0.6,0-1.1,0-1.4,0
		c-0.3,0-0.6,0.2-0.9,0.5c-0.3,0.3-0.6,0.8-0.9,1.4c-0.3,0.6-0.6,1.1-0.9,1.4c-0.3,0.3-0.8,0.6-1.4,0.9c-0.6,0.3-0.9,0.6-0.9,0.9
		s0,0.6,0,0.9c0,0.3,0,0.6,0,0.9c0,0.3,0.3,0.8,0.9,1.4c0.6,0.6,2.8,1.6,6.5,2.8c3.7,1.2,7.4,1.9,11.2,1.9s8.1,0,13,0
		c5,0,10.2-0.3,15.8-0.9c5.6-0.6,9.6-1.2,12.1-1.9S0,25,3.7,23.7c3.7-1.2,6.8-2.2,9.3-2.8c2.5-0.6,5.4-1.6,8.8-2.8
		c3.4-1.2,6.1-2,7.9-2.3s3.6-0.6,5.1-0.9c1.6-0.3,3.6-0.8,6.1-1.4s4.7-1.2,6.5-1.9c1.9-0.6,3.7-1.2,5.6-1.9c1.9-0.6,3.6-0.9,5.1-0.9
		c1.6,0,2.9-0.2,4.2-0.5c1.2-0.3,2.8-0.6,4.7-0.9C68.9,7.1,70,7,70.3,7s0.8-0.2,1.4-0.5c0.6-0.3,1.1-0.6,1.4-0.9S73.7,5,74,4.6
		S74.6,4,75,3.7s0.6-0.8,0.9-1.4c0.3-0.6,0.5-1.2,0.5-1.9c0-0.6,0-1.2,0-1.9c0-0.6,0-1.6,0-2.8c0-1.2-0.3-2.3-0.9-3.3
		c-0.6-0.9-1.9-1.9-3.7-2.8s-3.4-1.7-4.7-2.3c-1.2-0.6-2.8-1.2-4.7-1.9c-1.9-0.6-3.7-0.9-5.6-0.9c-1.9,0-4,0-6.5,0
		c-2.5,0-4.5,0-6.1,0c-1.6,0-3.1,0-4.7,0c-1.6,0-3.7,0-6.5,0c-2.8,0-5,0.2-6.5,0.5C25-14.6,23-14.3,20.5-14
		c-2.5,0.3-4.5,0.8-6.1,1.4c-1.6,0.6-3.1,0.9-4.7,0.9s-4.2,0.5-7.9,1.4S-5.3-8.5-8.4-7.9c-3.1,0.6-6.7,1.4-10.7,2.3
		c-4,0.9-7.3,1.4-9.8,1.4c-2.5,0-4.8,0-7,0c-2.2,0-5,0-8.4,0c-3.4,0-6.1,0-7.9,0c-1.9,0-4.3,0-7.4,0s-5.3-0.2-6.5-0.5
		c-1.2-0.3-2.3-0.5-3.3-0.5s-1.6-0.2-1.9-0.5c-0.3-0.3-0.8-0.5-1.4-0.5c-0.6,0-1.1-0.3-1.4-0.9c-0.3-0.6-0.6-1.1-0.9-1.4
		c-0.3-0.3-0.6-0.6-0.9-0.9c-0.3-0.3-0.5-0.8-0.5-1.4s0-1.2,0-1.9c0-0.6,0.3-1.2,0.9-1.9c0.6-0.6,1.7-1.2,3.3-1.9
		c1.6-0.6,3.4-1.2,5.6-1.9c2.2-0.6,4.8-0.9,7.9-0.9s5.3,0,6.5,0s2.8,0,4.7,0c1.9,0,3.9,0.3,6.1,0.9c2.2,0.6,4,0.9,5.6,0.9
		c1.6,0,3.4,0.3,5.6,0.9c2.2,0.6,3.9,0.9,5.1,0.9s2.6,0,4.2,0c1.6,0,3.4,0.2,5.6,0.5c2.2,0.3,4,0.5,5.6,0.5c1.6,0,3.1,0,4.7,0
		s3.4,0.2,5.6,0.5c2.2,0.3,4.2,0.5,6.1,0.5s3.9,0,6.1,0s4,0,5.6,0s3.6,0,6.1,0s4.5,0,6.1,0s2.9,0,4.2,0c1.2,0,3.1-0.2,5.6-0.5
		c2.5-0.3,4.3-0.6,5.6-0.9c1.2-0.3,2.6-0.6,4.2-0.9c1.6-0.3,3.3-0.6,5.1-0.9s3.1-0.5,3.7-0.5s1.2-0.2,1.9-0.5
		c0.6-0.3,1.1-0.6,1.4-0.9s0.6-0.8,0.9-1.4c0.3-0.6,0.6-1.2,0.9-1.9s0.3-1.2,0-1.9s-0.5-1.2-0.5-1.9c0-0.6-0.2-0.9-0.5-0.9
		s-0.6,0-0.9,0S61.3-26.7,61-27c-0.3-0.3-0.6-0.6-0.9-0.9c-0.3-0.3-0.8-0.5-1.4-0.5s-1.2,0-1.9,0c-0.6,0-1.1,0-1.4,0s-0.6,0-0.9,0
		s-0.6,0-0.9,0s-0.6,0-0.9,0s-0.6,0-0.9,0s-0.9,0-1.9,0h-1.4"/>
</g>
<g id="UZWmGLjhJWPst7cJz0hZ6" transform="matrix(1 0 0 1 330.76 224.48)">
	<path vector-effect="non-scaling-stroke" class="st5" d="M53.1-29.3c0,0-2.8,0-8.4,0c-5.6,0-11.5,0-17.7,0c-6.2,0-12.3,0-18.2,0
		c-5.9,0-10.6,0.2-14,0.5c-3.4,0.3-6.8,0.5-10.2,0.5c-3.4,0-6.1,0-7.9,0c-1.9,0-4,0.2-6.5,0.5c-2.5,0.3-4.7,0.6-6.5,0.9
		s-3.3,0.6-4.2,0.9c-0.9,0.3-2.5,0.9-4.7,1.9c-2.2,0.9-3.9,1.7-5.1,2.3c-1.2,0.6-2.8,1.2-4.7,1.9c-1.9,0.6-3.1,0.9-3.7,0.9
		c-0.6,0-1.2,0.2-1.9,0.5s-1.2,0.6-1.9,0.9c-0.6,0.3-1.1,0.8-1.4,1.4c-0.3,0.6-0.5,1.1-0.5,1.4c0,0.3,0.6,1.1,1.9,2.3
		c1.2,1.2,2.5,2.3,3.7,3.3c1.2,0.9,2.9,1.7,5.1,2.3c2.2,0.6,4.2,0.9,6.1,0.9c1.9,0,3.7,0,5.6,0c1.9,0,4-0.2,6.5-0.5
		c2.5-0.3,4.5-0.6,6.1-0.9c1.6-0.3,3.4-0.8,5.6-1.4c2.2-0.6,3.9-1.2,5.1-1.9c1.2-0.6,2.5-0.9,3.7-0.9c1.2,0,2.6-0.2,4.2-0.5
		S-7.9-12.7-7-13c0.9-0.3,2.3-0.5,4.2-0.5c1.9,0,3.4-0.2,4.7-0.5c1.2-0.3,2.5-0.5,3.7-0.5c1.2,0,2.8-0.2,4.7-0.5
		c1.9-0.3,3.6-0.5,5.1-0.5s3.3,0,5.1,0c1.9,0,3.3,0,4.2,0s2.3,0,4.2,0c1.9,0,3.4,0,4.7,0c1.2,0,2.3,0,3.3,0c0.9,0,2.2,0,3.7,0
		c1.6,0,2.6,0.2,3.3,0.5s1.2,0.5,1.9,0.5c0.6,0,1.2,0,1.9,0s1.1,0,1.4,0c0.3,0,0.8,0.2,1.4,0.5c0.6,0.3,1.2,0.5,1.9,0.5s1.1,0,1.4,0
		s0.6,0.2,0.9,0.5c0.3,0.3,0.6,0.5,0.9,0.5s0.5,0.2,0.5,0.5s-0.3,0.6-0.9,0.9c-0.6,0.3-1.7,0.6-3.3,0.9c-1.6,0.3-3.7,0.8-6.5,1.4
		c-2.8,0.6-5.3,1.2-7.4,1.9c-2.2,0.6-4.7,1.2-7.4,1.9c-2.8,0.6-5.1,0.9-7,0.9c-1.9,0-4,0.2-6.5,0.5c-2.5,0.3-4.7,0.5-6.5,0.5
		c-1.9,0-4,0-6.5,0c-2.5,0-4.7,0-6.5,0c-1.9,0-3.4,0-4.7,0c-1.2,0-2.3,0.2-3.3,0.5s-2.2,0.5-3.7,0.5c-1.6,0-2.9,0.3-4.2,0.9
		c-1.2,0.6-2.6,0.9-4.2,0.9s-2.8,0.2-3.7,0.5c-0.9,0.3-2.3,0.5-4.2,0.5c-1.9,0-3.9,0.2-6.1,0.5c-2.2,0.3-4,0.6-5.6,0.9
		c-1.6,0.3-3.3,0.5-5.1,0.5c-1.9,0-3.4,0.2-4.7,0.5s-2.2,0.5-2.8,0.5s-1.4,0-2.3,0s-1.6,0-1.9,0s-0.6,0-0.9,0c-0.3,0-0.6,0-0.9,0
		c-0.3,0-0.6,0-0.9,0s-0.5,0.2-0.5,0.5s0.2,0.6,0.5,0.9s1.1,0.5,2.3,0.5s3.3,0.2,6.1,0.5C-50.7,5.9-46.7,6-41.4,6s9.5,0,12.6,0
		c3.1,0,5.9,0,8.4,0s4.5,0,6.1,0c1.6,0,3.4,0.2,5.6,0.5C-6.7,6.8-4.7,7-2.8,7c1.9,0,3.6,0,5.1,0c1.6,0,3.4,0,5.6,0c2.2,0,4,0,5.6,0
		c1.6,0,3.3-0.2,5.1-0.5c1.9-0.3,4.2-0.6,7-0.9c2.8-0.3,4.8-0.5,6.1-0.5c1.2,0,2.9,0,5.1,0s3.9,0,5.1,0s2.6,0,4.2,0
		c1.6,0,2.9,0,4.2,0s2.3,0,3.3,0s2.2,0,3.7,0c1.6,0,2.8,0.2,3.7,0.5C61.9,5.9,62.9,6,63.8,6c0.9,0,1.7,0,2.3,0s1.1,0.2,1.4,0.5
		C67.8,6.8,68.1,7,68.4,7s0.5,0.2,0.5,0.5S68.3,8.2,67,8.8c-1.2,0.6-3.1,1.1-5.6,1.4c-2.5,0.3-6.2,0.8-11.2,1.4
		c-5,0.6-9.6,1.1-14,1.4c-4.3,0.3-8.5,0.5-12.6,0.5c-4,0-7,0-8.8,0c-1.9,0-3.6,0.2-5.1,0.5c-1.6,0.3-2.9,0.5-4.2,0.5
		c-1.2,0-2.5,0-3.7,0c-1.2,0-3.1,0.3-5.6,0.9c-2.5,0.6-4.7,1.1-6.5,1.4c-1.9,0.3-5.3,0.5-10.2,0.5s-9.5-0.2-13.5-0.5
		c-4-0.3-7.4-0.5-10.2-0.5c-2.8,0-5.1,0-7,0c-1.9,0-3.1,0-3.7,0s-1.2,0-1.9,0s-1.2,0-1.9,0c-0.6,0-1.1,0-1.4,0
		c-0.3,0-0.6,0.2-0.9,0.5c-0.3,0.3-0.6,0.8-0.9,1.4c-0.3,0.6-0.6,1.1-0.9,1.4c-0.3,0.3-0.8,0.6-1.4,0.9c-0.6,0.3-0.9,0.6-0.9,0.9
		s0,0.6,0,0.9c0,0.3,0,0.6,0,0.9c0,0.3,0.3,0.8,0.9,1.4c0.6,0.6,2.8,1.6,6.5,2.8c3.7,1.2,7.4,1.9,11.2,1.9s8.1,0,13,0
		c5,0,10.2-0.3,15.8-0.9c5.6-0.6,9.6-1.2,12.1-1.9S0,25,3.7,23.7c3.7-1.2,6.8-2.2,9.3-2.8c2.5-0.6,5.4-1.6,8.8-2.8
		c3.4-1.2,6.1-2,7.9-2.3s3.6-0.6,5.1-0.9c1.6-0.3,3.6-0.8,6.1-1.4s4.7-1.2,6.5-1.9c1.9-0.6,3.7-1.2,5.6-1.9c1.9-0.6,3.6-0.9,5.1-0.9
		c1.6,0,2.9-0.2,4.2-0.5c1.2-0.3,2.8-0.6,4.7-0.9C68.9,7.1,70,7,70.3,7s0.8-0.2,1.4-0.5c0.6-0.3,1.1-0.6,1.4-0.9S73.7,5,74,4.6
		S74.6,4,75,3.7s0.6-0.8,0.9-1.4c0.3-0.6,0.5-1.2,0.5-1.9c0-0.6,0-1.2,0-1.9c0-0.6,0-1.6,0-2.8c0-1.2-0.3-2.3-0.9-3.3
		c-0.6-0.9-1.9-1.9-3.7-2.8s-3.4-1.7-4.7-2.3c-1.2-0.6-2.8-1.2-4.7-1.9c-1.9-0.6-3.7-0.9-5.6-0.9c-1.9,0-4,0-6.5,0
		c-2.5,0-4.5,0-6.1,0c-1.6,0-3.1,0-4.7,0c-1.6,0-3.7,0-6.5,0c-2.8,0-5,0.2-6.5,0.5C25-14.6,23-14.3,20.5-14
		c-2.5,0.3-4.5,0.8-6.1,1.4c-1.6,0.6-3.1,0.9-4.7,0.9s-4.2,0.5-7.9,1.4S-5.3-8.5-8.4-7.9c-3.1,0.6-6.7,1.4-10.7,2.3
		c-4,0.9-7.3,1.4-9.8,1.4c-2.5,0-4.8,0-7,0c-2.2,0-5,0-8.4,0c-3.4,0-6.1,0-7.9,0c-1.9,0-4.3,0-7.4,0s-5.3-0.2-6.5-0.5
		c-1.2-0.3-2.3-0.5-3.3-0.5s-1.6-0.2-1.9-0.5c-0.3-0.3-0.8-0.5-1.4-0.5c-0.6,0-1.1-0.3-1.4-0.9c-0.3-0.6-0.6-1.1-0.9-1.4
		c-0.3-0.3-0.6-0.6-0.9-0.9c-0.3-0.3-0.5-0.8-0.5-1.4s0-1.2,0-1.9c0-0.6,0.3-1.2,0.9-1.9c0.6-0.6,1.7-1.2,3.3-1.9
		c1.6-0.6,3.4-1.2,5.6-1.9c2.2-0.6,4.8-0.9,7.9-0.9s5.3,0,6.5,0s2.8,0,4.7,0c1.9,0,3.9,0.3,6.1,0.9c2.2,0.6,4,0.9,5.6,0.9
		c1.6,0,3.4,0.3,5.6,0.9c2.2,0.6,3.9,0.9,5.1,0.9s2.6,0,4.2,0c1.6,0,3.4,0.2,5.6,0.5c2.2,0.3,4,0.5,5.6,0.5c1.6,0,3.1,0,4.7,0
		s3.4,0.2,5.6,0.5c2.2,0.3,4.2,0.5,6.1,0.5s3.9,0,6.1,0s4,0,5.6,0s3.6,0,6.1,0s4.5,0,6.1,0s2.9,0,4.2,0c1.2,0,3.1-0.2,5.6-0.5
		c2.5-0.3,4.3-0.6,5.6-0.9c1.2-0.3,2.6-0.6,4.2-0.9c1.6-0.3,3.3-0.6,5.1-0.9s3.1-0.5,3.7-0.5s1.2-0.2,1.9-0.5
		c0.6-0.3,1.1-0.6,1.4-0.9s0.6-0.8,0.9-1.4c0.3-0.6,0.6-1.2,0.9-1.9s0.3-1.2,0-1.9s-0.5-1.2-0.5-1.9c0-0.6-0.2-0.9-0.5-0.9
		s-0.6,0-0.9,0S61.3-26.7,61-27c-0.3-0.3-0.6-0.6-0.9-0.9c-0.3-0.3-0.8-0.5-1.4-0.5s-1.2,0-1.9,0c-0.6,0-1.1,0-1.4,0s-0.6,0-0.9,0
		s-0.6,0-0.9,0s-0.6,0-0.9,0s-0.6,0-0.9,0s-0.9,0-1.9,0h-1.4"/>
</g>
<g id="bG0cqGe6w3zgUP4S132B1" transform="matrix(1.04 0 0 0.76 318.9 122)">
	<path vector-effect="non-scaling-stroke" class="st6" d="M-8.4,48.7c0,0-0.6-1.9-1.9-5.6c-1.2-3.7-2.5-7.8-3.7-12.1
		c-1.2-4.3-2-7.6-2.3-9.8c-0.3-2.2-0.5-4.3-0.5-6.5s0-3.7,0-4.7s0-1.7,0-2.3s0-1.6,0-2.8s0-2.2,0-2.8c0-0.6,0-1.2,0-1.9
		c0-0.6,0.2-1.1,0.5-1.4c0.3-0.3,0.6-0.6,0.9-0.9c0.3-0.3,0.8-0.5,1.4-0.5c0.6,0,1.1-0.2,1.4-0.5c0.3-0.3,0.9-0.5,1.9-0.5
		c0.9,0,2.3,0.3,4.2,0.9c1.9,0.6,3.1,1.1,3.7,1.4c0.6,0.3,1.4,0.8,2.3,1.4c0.9,0.6,1.7,1.4,2.3,2.3c0.6,0.9,1.2,1.9,1.9,2.8
		c0.6,0.9,1.1,2,1.4,3.3c0.3,1.2,0.5,2.2,0.5,2.8s0,1.4,0,2.3c0,0.9-0.3,2.2-0.9,3.7c-0.6,1.6-1.1,2.9-1.4,4.2
		c-0.3,1.2-0.6,2.6-0.9,4.2c-0.3,1.6-0.8,2.5-1.4,2.8C0.3,29-0.2,29.8-0.5,31s-0.5,2-0.5,2.3c0,0.3-0.2,0.6-0.5,0.9
		c-0.3,0.3-0.5,0.8-0.5,1.4s-0.2,1.1-0.5,1.4c-0.3,0.3-0.6,0.8-0.9,1.4c-0.3,0.6-0.5,1.1-0.5,1.4c0,0.3-0.2,0.6-0.5,0.9
		s-0.5,0.6-0.5,0.9s-0.2,0.6-0.5,0.9c-0.3,0.3-0.5,0.6-0.5,0.9s0,0.8,0,1.4c0,0.6-0.2,1.1-0.5,1.4c-0.3,0.3-0.5,0.6-0.5,0.9
		c0,0.3,0,0.6,0,0.9c0,0.3,0,0.8,0,1.4v0.9L-8.4,48.7z M-46.6,31c0,0-0.2-0.6-0.5-1.9c-0.3-1.2-0.9-3.6-1.9-7
		c-0.9-3.4-1.6-5.9-1.9-7.4c-0.3-1.6-0.6-3.1-0.9-4.7s-0.6-2.8-0.9-3.7c-0.3-0.9-0.5-1.9-0.5-2.8c0-0.9,0-1.9,0-2.8
		c0-0.9,0-1.9,0-2.8s0-1.9,0-2.8s0.2-1.7,0.5-2.3c0.3-0.6,0.6-1.4,0.9-2.3c0.3-0.9,0.6-1.6,0.9-1.9c0.3-0.3,0.5-0.6,0.5-0.9
		c0-0.3,0.3-0.6,0.9-0.9c0.6-0.3,1.1-0.5,1.4-0.5s1.2-0.3,2.8-0.9c1.6-0.6,2.9-0.9,4.2-0.9c1.2,0,2.8,0.3,4.7,0.9
		c1.9,0.6,3.6,1.6,5.1,2.8c1.6,1.2,2.6,2.2,3.3,2.8c0.6,0.6,1.1,1.6,1.4,2.8s0.5,2.5,0.5,3.7c0,1.2-0.3,2.8-0.9,4.7
		c-0.6,1.9-1.2,3.4-1.9,4.7C-29.5,8-30.1,9-30.7,9.6c-0.6,0.6-1.1,1.2-1.4,1.9c-0.3,0.6-0.6,0.9-0.9,0.9c-0.3,0-0.5,0.2-0.5,0.5
		c0,0.3-0.2,0.6-0.5,0.9c-0.3,0.3-0.6,0.5-0.9,0.5c-0.3,0-0.6,0.2-0.9,0.5c-0.3,0.3-0.5,0.6-0.5,0.9c0,0.3-0.2,0.6-0.5,0.9
		c-0.3,0.3-0.5,0.6-0.5,0.9s-0.2,0.5-0.5,0.5s-0.6,0.3-0.9,0.9c-0.3,0.6-0.5,1.1-0.5,1.4s0,0.6,0,0.9c0,0.3-0.2,0.8-0.5,1.4
		c-0.3,0.6-0.6,0.9-0.9,0.9c-0.3,0-0.5,0.3-0.5,0.9s-0.2,0.9-0.5,0.9s-0.5,0.2-0.5,0.5c0,0.3,0,0.6,0,0.9s-0.2,0.5-0.5,0.5
		c-0.3,0-0.5,0.2-0.5,0.5s0,0.6,0,0.9c0,0.3,0,0.6,0,0.9s0,0.6,0,0.9s0,0.6,0,0.9c0,0.3,0,0.8,0,1.4v0.9L-46.6,31z M24.2,32.9
		c0,0-0.3-1.6-0.9-4.7c-0.6-3.1-1.4-6.2-2.3-9.3c-0.9-3.1-2.2-6.5-3.7-10.2c-1.6-3.7-2.8-6.8-3.7-9.3c-0.9-2.5-1.6-4.7-1.9-6.5
		c-0.3-1.9-0.6-3.1-0.9-3.7c-0.3-0.6-0.5-1.1-0.5-1.4s0-0.6,0-0.9c0-0.3,0.2-0.5,0.5-0.5c0.3,0,0.6,0,0.9,0s0.8,0.3,1.4,0.9
		c0.6,0.6,1.1,1.4,1.4,2.3c0.3,0.9,0.8,1.9,1.4,2.8c0.6,0.9,1.6,2,2.8,3.3c1.2,1.2,2.2,2.6,2.8,4.2c0.6,1.6,1.9,3.6,3.7,6
		c1.9,2.5,3.3,4.3,4.2,5.6c0.9,1.2,1.6,2.5,1.9,3.7c0.3,1.2,0.8,2.3,1.4,3.3c0.6,0.9,0.9,1.6,0.9,1.9s0,0.6,0,0.9c0,0.3,0,0.8,0,1.4
		s0,1.1,0,1.4c0,0.3,0,0.6,0,0.9s0,0.6,0,0.9s0,0.8,0,1.4c0,0.6,0,1.1,0,1.4s0,0.9,0,1.9s-0.2,1.6-0.5,1.9c-0.3,0.3-0.5,0.6-0.5,0.9
		s0,0.6,0,0.9c0,0.3-0.2,0.6-0.5,0.9c-0.3,0.3-0.6,0.6-0.9,0.9s-0.6,0.5-0.9,0.5s-0.6,0-0.9,0s-0.6,0-0.9,0c-0.3,0-0.8,0-1.4,0
		s-1.1,0-1.4,0s-0.6,0-0.9,0s-0.6,0-0.9,0s-0.6,0-0.9,0s-0.5-0.3-0.5-0.9v-0.9L24.2,32.9z M43.8,31.9c0-0.9,0-2.9,0-3.3
		c0-0.3,0-0.6,0-0.9c0-0.3,0-0.8,0-1.4s0-1.2,0-1.9s0-1.1,0-1.4c0-0.3,0-0.9,0-1.9c0-0.4,0-0.7,0.1-1c0.1,1,0.2,1.9,0.4,2.9
		c0.3,1.6,0.5,3.1,0.5,4.7c0,1.6,0,2.3,0,2.3L43.8,31.9z M43.8,18.4c0-1.6,0-2.5,0-2.8c0-0.3,0-0.6,0-0.9s0.2-0.5,0.5-0.5
		c0.3,0,0.7,0,1.2,0c0.2-0.7,0.4-1.2,0.7-1.4c0.3-0.3,0.5-0.8,0.5-1.4c0-0.3,0-0.6,0-0.9c0.6,2.5,1.1,4,1.4,4.7
		c0.3,0.6,0.2,0.9-0.5,0.9s-0.9-0.2-0.9-0.5c0-0.3,0-0.6,0-0.9s-0.3-0.5-0.9-0.5c-0.1,0-0.1,0-0.2,0c-0.1,0.3-0.2,0.6-0.3,0.9
		c-0.3,1.2-0.5,2-0.5,2.3c0,0.3-0.2,0.8-0.5,1.4c-0.2,0.4-0.3,0.8-0.4,1.3C43.8,19.6,43.8,19,43.8,18.4z M44.2,3.1
		c-0.9-2.5-1.7-4.8-2.3-7c-0.6-2.2-1.2-4.7-1.9-7.4c-0.6-2.8-0.9-4.8-0.9-6c0-1.2,0-2.8,0-4.7s0-3.4,0-4.7c0-1.2,0-2.8,0-4.7
		c0-1.9,0.2-3.9,0.5-6s0.6-4,0.9-5.6c0.3-1.6,0.6-2.9,0.9-4.2c0.3-1.2,0.5-2,0.5-2.3c0-0.3,0.2-0.6,0.5-0.9c0.3-0.3,0.8,0,1.4,0.9
		c0.6,0.9,1.4,2.8,2.3,5.6s1.7,5.4,2.3,7.9c0.6,2.5,1.4,5.3,2.3,8.4s1.6,5.6,1.9,7.4c0.3,1.9,0.5,3.4,0.5,4.7c0,1.2,0,2.8,0,4.7
		c0,1.9-0.2,3.6-0.5,5.1s-0.8,3.1-1.4,4.7c-0.6,1.6-1.2,2.6-1.9,3.3c-0.6,0.6-0.9,1.2-0.9,1.9c0,0.6-0.2,1.1-0.5,1.4
		c-0.3,0.3-0.5,0.6-0.5,0.9c0,0.3-0.2,0.8-0.5,1.4c-0.3,0.6-0.5,1.2-0.5,1.9c0,0.3,0,0.6,0,0.9C45.9,8,45.2,5.6,44.2,3.1L44.2,3.1z"
		/>
</g>
<g id="R6snMLfI1vLVw996DJbzo" transform="matrix(0.27 0 0 -0.25 91.1 316.91)">
	<path vector-effect="non-scaling-stroke" class="st7" d="M-2.3-72.1c0,0,0,0.3,0,0.9c0,0.6,0,2.2,0,4.7c0,2.5-0.2,5.3-0.5,8.4
		c-0.3,3.1-0.6,5.9-0.9,8.4c-0.3,2.5-0.5,5-0.5,7.4c0,2.5,0,5.1,0,7.9c0,2.8,0,5.3,0,7.4s0,4.7,0,7.4c0,2.8,0,5.1,0,7s0,4.2,0,7
		c0,2.8,0,5.1,0,7c0,1.9,0,3.7,0,5.6c0,1.9-0.2,4.2-0.5,7c-0.3,2.8-0.5,5.1-0.5,7s-0.2,3.9-0.5,6c-0.3,2.2-0.5,4-0.5,5.6
		c0,1.6,0,3.1,0,4.7c0,1.6,0,3.1,0,4.7c0,1.6,0,2.8,0,3.7c0,0.9,0,2.3,0,4.2c0,1.9,0,3.7,0,5.6c0,1.9,0,3.7,0,5.6c0,1.9,0,3.1,0,3.7
		c0,0.6,0,1.4,0,2.3c0,0.9,0,1.6,0,1.9s0,0.6,0,0.9c0,0.3,0,0.6,0,0.9s0,0.6,0,0.9c0,0.3,0.2,0.5,0.5,0.5c0.3,0,0.6,0,0.9,0
		s0.6-0.5,0.9-1.4c0.3-0.9,1.1-2.3,2.3-4.2c1.2-1.9,2.3-3.9,3.3-6c0.9-2.2,1.7-4,2.3-5.6c0.6-1.6,1.1-3.6,1.4-6S6,44.7,6,43.7
		c0-0.9,0-2.2,0-3.7c0-1.6,0-2.6,0-3.3c0-0.6,0-1.6,0-2.8c0-1.2,0-2.3,0-3.3c0-0.9,0-2,0-3.3c0-1.2,0-2.6,0-4.2s0-2.6,0-3.3
		c0-0.6,0-1.6,0-2.8s0-2.3,0-3.3s0-2,0-3.3c0-1.2,0-2.3,0-3.3c0-0.9,0-2,0-3.3C6,2.9,6,1.6,6,0S5.9-2.8,5.6-3.7S5-5.9,4.7-7.4
		C4.3-9,4.2-10.2,4.2-11.2c0-0.9-0.2-2-0.5-3.3c-0.3-1.2-0.6-2.8-0.9-4.7c-0.3-1.9-0.5-3.6-0.5-5.1s-0.2-3.4-0.5-5.6
		c-0.3-2.2-0.5-4-0.5-5.6c0-1.6,0-3.1,0-4.7s-0.2-3.3-0.5-5.1c-0.3-1.9-0.5-3.3-0.5-4.2s0-1.9,0-2.8s0-1.7,0-2.3c0-0.6,0-1.1,0-1.4
		s0-0.8,0-1.4c0-0.6,0-1.1,0-1.4c0-0.3-0.2-0.6-0.5-0.9c-0.3-0.3-0.5-0.6-0.5-0.9c0-0.3-0.2-0.8-0.5-1.4c-0.3-0.6-0.5-1.1-0.5-1.4
		c0-0.3,0-0.6,0-0.9s0-0.8,0-1.4v-0.9"/>
</g>
<g id="NfPEpmQMsR3UL0C9o7mbI" transform="matrix(-0.29 0 0 -0.73 92.72 280.23)">
	<path vector-effect="non-scaling-stroke" class="st7" d="M-7.9-62.3c0,0,0,0.3,0,0.9c0,0.6,0,1.9,0,3.7c0,1.9,0,4.2,0,7
		c0,2.8,0,5,0,6.5s0,3.7,0,6.5s0,5.3,0,7.4c0,2.2,0,4.5,0,7c0,2.5,0,6.5,0,12.1c0,5.6,0,9.9,0,13s0,6.8,0,11.2s0,7.9,0,10.7
		s0,5.9,0,9.3s0.2,5.7,0.5,7c0.3,1.2,0.6,2.5,0.9,3.7S-6,46.2-6,47.5s0.2,2.2,0.5,2.8c0.3,0.6,0.6,1.6,0.9,2.8
		c0.3,1.2,0.5,2.2,0.5,2.8s0.2,1.2,0.5,1.9c0.3,0.6,0.5,1.1,0.5,1.4c0,0.3,0,0.6,0,0.9s0,0.6,0,0.9c0,0.3,0,0.6,0,0.9
		s0.2,0.5,0.5,0.5c0.3,0,0.5-0.2,0.5-0.5c0-0.3,0.5-1.1,1.4-2.3c0.9-1.2,1.6-2.6,1.9-4.2c0.3-1.6,0.9-3.7,1.9-6.5
		c0.9-2.8,1.9-5.9,2.8-9.3c0.9-3.4,1.6-7.3,1.9-11.6c0.3-4.3,0.3-7.9,0-10.7C7.2,14.4,7,11.6,7,8.8s-0.6-6-1.9-9.8
		c-1.2-3.7-2-6.7-2.3-8.8s-0.8-4.7-1.4-7.4c-0.6-2.8-1.2-4.8-1.9-6s-1.1-2.8-1.4-4.7c-0.3-1.9-0.5-3.1-0.5-3.7
		c0-0.6-0.2-1.2-0.5-1.9s-0.6-1.4-0.9-2.3c-0.3-0.9-0.5-1.9-0.5-2.8s-0.3-2-0.9-3.3C-5.7-43.1-6-44.4-6-45.6c0-1.2,0-2.5,0-3.7
		s0-2,0-2.3s0-0.6,0-0.9c0-0.3,0-0.8,0-1.4s0-1.2,0-1.9s-0.2-1.1-0.5-1.4s-0.5-0.6-0.5-0.9c0-0.3,0-0.6,0-0.9s-0.2-0.6-0.5-0.9
		l-0.5-0.5"/>
</g>
<g id="srXtuKxDIOCZ0x1zhmJ7r" transform="matrix(0.63 0 0 -0.72 101.34 289.69)">
	<path vector-effect="non-scaling-stroke" class="st7" d="M-10.7-73.5c0,0,0,0.6,0,1.9s0.5,4.7,1.4,10.2c0.9,5.6,1.9,10.2,2.8,14
		c0.9,3.7,1.7,9.3,2.3,16.8c0.6,7.4,1.1,13.6,1.4,18.6c0.3,5,0.6,9.6,0.9,14s0.6,8.7,0.9,13c0.3,4.3,0.5,7.4,0.5,9.3
		c0,1.9,0,3.7,0,5.6c0,1.9,0,3.7,0,5.6c0,1.9-0.2,3.9-0.5,6c-0.3,2.2-0.8,4.2-1.4,6c-0.6,1.9-1.1,4-1.4,6.5c-0.3,2.5-0.6,4.5-0.9,6
		C-5,61.6-5.1,63-5.1,64.2c0,1.2-0.2,2.3-0.5,3.3S-6,69.2-6,69.8c0,0.6,0,1.2,0,1.9c0,0.6,0,1.1,0,1.4c0,0.3,0,0.8,0,1.4
		c0,0.6,0.2,1.1,0.5,1.4s0.8,0.5,1.4,0.5c0.6,0,1.4-0.3,2.3-0.9c0.9-0.6,2.2-1.9,3.7-3.7c1.6-1.9,2.9-3.9,4.2-6
		c1.2-2.2,2.2-4.7,2.8-7.4c0.6-2.8,1.1-5,1.4-6.5c0.3-1.6,0.5-3.3,0.5-5.1c0-1.9-0.2-4.3-0.5-7.4c-0.3-3.1-0.5-5.6-0.5-7.4
		c0-1.9-0.5-4.3-1.4-7.4s-1.6-5.6-1.9-7.4c-0.3-1.9-0.6-3.7-0.9-5.6S5,6.8,4.7,3.7C4.3,0.6,3.9-1.9,3.3-3.7C2.6-5.6,2-8.1,1.4-11.2
		c-0.6-3.1-1.2-6.2-1.9-9.3c-0.6-3.1-0.9-5-0.9-5.6c0-0.6-0.3-2-0.9-4.2c-0.6-2.2-0.9-3.7-0.9-4.7s-0.2-2-0.5-3.3
		c-0.3-1.2-0.6-2.5-0.9-3.7C-5-43.1-5.3-44-5.6-44.7C-5.9-45.3-6-45.9-6-46.5c0-0.6-0.2-0.9-0.5-0.9c-0.3,0-0.5-0.5-0.5-1.4
		c0-0.9,0-1.6,0-1.9s-0.2-0.8-0.5-1.4c-0.3-0.6-0.5-1.2-0.5-1.9s0-1.1,0-1.4c0-0.3,0-0.8,0-1.4c0-0.6,0-1.1,0-1.4c0-0.3,0-0.8,0-1.4
		c0-0.6,0-1.1,0-1.4s0-0.6,0-0.9s-0.2-0.8-0.5-1.4s-0.5-1.2-0.5-1.9s0-1.2,0-1.9c0-0.6-0.2-1.1-0.5-1.4c-0.3-0.3-0.5-0.6-0.5-0.9
		c0-0.3,0-0.6,0-0.9c0-0.3,0-0.6,0-0.9s0-0.8,0-1.4s0-1.1,0-1.4s0-0.8,0-1.4v-0.9"/>
</g>
<g id="_x32_CT6lfIEBeTIHTs9_x5F_9bUS" transform="matrix(0.13 0 0 -0.72 87.01 277.98)">
	<path vector-effect="non-scaling-stroke" class="st7" d="M-9.8-63.6c0,0,0,0.2,0,0.5s-0.2,0.9-0.5,1.9c-0.3,0.9-0.5,2.2-0.5,3.7
		s-0.3,2.9-0.9,4.2c-0.6,1.2-1.1,2.6-1.4,4.2c-0.3,1.6-0.6,3.6-0.9,6c-0.3,2.5-0.9,5.7-1.9,9.8c-0.9,4-1.6,6.4-1.9,7
		c-0.3,0.6-0.5,1.2-0.5,1.9c0,0.6,0,1.6,0,2.8s-0.2,2.5-0.5,3.7c-0.3,1.2-0.5,2-0.5,2.3c0,0.3,0,0.6,0,0.9s0,0.8,0,1.4
		c0,0.6,0,1.4,0,2.3c0,0.9,0,1.7,0,2.3s0,1.7,0,3.3c0,1.6,0.2,3.6,0.5,6c0.3,2.5,0.9,4.7,1.9,6.5c0.9,1.9,1.9,3.7,2.8,5.6
		c0.9,1.9,2,3.6,3.3,5.1s2.5,3.4,3.7,5.6c1.2,2.2,2.5,4,3.7,5.6c1.2,1.6,2.3,2.9,3.3,4.2c0.9,1.2,2.2,2.9,3.7,5.1s2.8,3.9,3.7,5.1
		c0.9,1.2,1.9,2.5,2.8,3.7c0.9,1.2,1.9,2.6,2.8,4.2c0.9,1.6,1.6,2.6,1.9,3.3c0.3,0.6,0.8,1.2,1.4,1.9s0.9,1.2,0.9,1.9
		c0,0.6,0,1.1,0,1.4c0,0.3,0.2,0.6,0.5,0.9c0.3,0.3,0.6,0.6,0.9,0.9c0.3,0.3,0.5,0.6,0.5,0.9s0,0.6,0,0.9c0,0.3,0-0.3,0-1.9
		c0-1.6,0-3.4,0-5.6s-0.3-4.8-0.9-7.9c-0.6-3.1-1.6-7.4-2.8-13c-1.2-5.6-2.3-10.5-3.3-14.9c-0.9-4.3-1.6-7.6-1.9-9.8
		c-0.3-2.2-0.9-4.5-1.9-7c-0.9-2.5-1.6-5-1.9-7.4c-0.3-2.5-0.8-4.5-1.4-6S4-14,3.7-17.1c-0.3-3.1-0.5-5.3-0.5-6.5
		c0-1.2-0.2-2.5-0.5-3.7c-0.3-1.2-0.6-2.8-0.9-4.7c-0.3-1.9-0.5-3.4-0.5-4.7c0-1.2-0.2-2.5-0.5-3.7S0.3-42.5,0-43.2
		c-0.3-0.6-0.6-1.2-0.9-1.9s-0.8-1.6-1.4-2.8c-0.6-1.2-1.1-2.2-1.4-2.8c-0.3-0.6-0.6-1.2-0.9-1.9s-0.6-1.2-0.9-1.9
		c-0.3-0.6-0.6-1.4-0.9-2.3C-6.8-57.6-7-58.2-7-58.5c0-0.3-0.2-0.5-0.5-0.5s-0.6-0.3-0.9-0.9c-0.3-0.6-0.6-0.9-0.9-0.9
		c-0.3,0-0.6-0.2-0.9-0.5c-0.3-0.3-0.6-0.5-0.9-0.5s-0.6,0-0.9,0c-0.3,0-0.6,0-0.9,0c-0.3,0-0.8,0-1.4,0h-0.9"/>
</g>
<g id="svrkTTk_lqOK2gbm_1x54" transform="matrix(0.37 0 0 -0.72 85.31 278.06)">
	<path vector-effect="non-scaling-stroke" class="st7" d="M14.9-63.7c0,0-0.2,0-0.5,0c-0.3,0-0.9,0.2-1.9,0.5
		c-0.9,0.3-1.9,0.8-2.8,1.4S7.9-60.3,7-59.1s-1.7,2.3-2.3,3.3C4-54.9,3.1-53,1.9-50.3c-1.2,2.8-2.3,5.4-3.3,7.9
		c-0.9,2.5-1.7,5.1-2.3,7.9c-0.6,2.8-1.1,5.1-1.4,7s-0.5,3.7-0.5,5.6c0,1.9-0.3,4-0.9,6.5c-0.6,2.5-0.9,4.5-0.9,6s-0.3,3.6-0.9,6
		C-9-0.8-9.3,1.4-9.3,3.3S-9.5,7-9.8,8.8s-0.6,3.9-0.9,6s-0.6,4-0.9,5.6c-0.3,1.6-0.6,3.6-0.9,6c-0.3,2.5-0.5,4.5-0.5,6
		c0,1.6-0.3,3.1-0.9,4.7c-0.6,1.6-0.9,3.6-0.9,6c0,2.5-0.2,4.2-0.5,5.1c-0.3,0.9-0.5,1.6-0.5,1.9s0,0.8,0,1.4c0,0.6,0,1.2,0,1.9
		s0,1.1,0,1.4c0,0.3,0,0.8,0,1.4c0,0.6,0,1.4,0,2.3c0,0.9,0.2,1.4,0.5,1.4c0.3,0,0.5,0.3,0.5,0.9c0,0.6,0.2,1.2,0.5,1.9
		c0.3,0.6,0.6,0.9,0.9,0.9s0.6,0,0.9,0s0.8,0,1.4,0c0.6,0,1.4-0.5,2.3-1.4c0.9-0.9,2-2.2,3.3-3.7c1.2-1.6,2.6-4,4.2-7.4
		c1.6-3.4,2.8-6.8,3.7-10.2c0.9-3.4,1.7-7.3,2.3-11.6C5.3,25,5.6,21.9,5.6,20c0-1.9,0.2-3.7,0.5-5.6c0.3-1.9,0.5-3.6,0.5-5.1
		s0-3.1,0-4.7c0-1.6,0.2-3.4,0.5-5.6c0.3-2.2,0.8-4.2,1.4-6c0.6-1.9,1.1-4,1.4-6.5c0.3-2.5,0.6-4.5,0.9-6c0.3-1.6,0.6-3.6,0.9-6
		c0.3-2.5,0.6-4.3,0.9-5.6c0.3-1.2,0.8-2.5,1.4-3.7c0.6-1.2,0.9-2.6,0.9-4.2s0-2.8,0-3.7s0-1.7,0-2.3s0-1.1,0-1.4s0-0.6,0-0.9
		c0-0.3,0-0.9,0-1.9c0-0.9,0-1.6,0-1.9s0-0.8,0-1.4s0-1.2,0-1.9s0-1.2,0-1.9c0-0.6,0-1.1,0-1.4c0-0.3,0-0.6,0-0.9
		c0-0.3,0.2-0.8,0.5-1.4l0.5-0.9"/>
</g>
<g id="OVl31IDBlYkglsB6qBFtB" transform="matrix(0.41 0 0 -0.72 92.72 287.03)">
	<path vector-effect="non-scaling-stroke" class="st7" d="M-3.3-61c0,0,0,3.7,0,11.2c0,7.4,0,13.5,0,18.1c0,4.7,0,9.8,0,15.4
		c0,5.6,0,9.8,0,12.6s0,5.3,0,7.4c0,2.2,0,4.2,0,6c0,1.9,0,3.4,0,4.7s0,2.5,0,3.7s0,2,0,2.3s0,0.8,0,1.4c0,0.6,0,1.1,0,1.4
		c0,0.3,0,0.8,0,1.4c0,0.6,0,1.2,0,1.9s0,1.2,0,1.9c0,0.6,0,1.2,0,1.9s0,1.4,0,2.3c0,0.9,0,1.9,0,2.8s0,2,0,3.3s0,2.5,0,3.7
		s0,3.3,0,6s0,5,0,6.5c0,1.6,0.2,2.9,0.5,4.2c0.3,1.2,0.6,2.8,0.9,4.7c0.3,1.9,0.5,3.3,0.5,4.2c0,0.9,0.2,1.6,0.5,1.9
		c0.3,0.3,0.5,1.1,0.5,2.3c0,1.2,0.2,2.2,0.5,2.8s0.6,0.9,0.9,0.9s0.8-1.1,1.4-3.3c0.6-2.2,1.4-4.7,2.3-7.4
		c0.9-2.8,1.7-6.7,2.3-11.6s1.6-11.2,2.8-18.6c1.2-7.4,1.9-13.2,1.9-17.2s-0.3-7.4-0.9-10.2s-1.2-6-1.9-9.8C8.2-6.1,7.6-9.2,7-11.6
		s-1.4-5.7-2.3-9.8c-0.9-4-1.7-7.3-2.3-9.8c-0.6-2.5-1.1-4.5-1.4-6s-0.5-3.3-0.5-5.1s0-3.4,0-4.7c0-1.2,0-3.1,0-5.6
		c0-2.5,0-4.3,0-5.6s0-2.8,0-4.7c0-1.9,0-3.1,0-3.7c0-0.6,0-1.2,0-1.9s0-1.1,0-1.4s0-0.6,0-0.9c0-0.3,0-0.8,0-1.4
		c0-0.6-0.2-1.2-0.5-1.9c-0.3-0.6-0.5-1.1-0.5-1.4c0-0.3-0.2-0.5-0.5-0.5c-0.3,0-0.8,0.2-1.4,0.5c-0.6,0.3-0.9,0.6-0.9,0.9
		c0,0.3-0.5,0.6-1.4,0.9c-0.9,0.3-1.6,0.6-1.9,0.9c-0.3,0.3-0.8,0.8-1.4,1.4c-0.6,0.6-1.1,1.1-1.4,1.4c-0.3,0.3-0.6,0.5-0.9,0.5
		s-0.6,0.3-0.9,0.9l-0.5,0.9"/>
</g>
</svg>
