<svg id="Layer_1" data-name="Layer 1" xmlns="http://www.w3.org/2000/svg" viewBox="0 0 190.78 273">
  <defs>
    <style>
      .cls-1 {
        fill: none;
        stroke: #231f20;
        stroke-miterlimit: 10;
      }
    </style>
  </defs>
  <g id="Gfq6T3Gb2TszP3sPSV1DY">
    <path class="cls-1" d="M249.73,412s-.32-1.87-.94-5.59a67.77,67.77,0,0,1-.93-11.16V362.65q0-7.45.47-17.69t1.86-15.35a65.1,65.1,0,0,0,1.86-8.84q.47-3.72.93-6.51a28.94,28.94,0,0,0,.47-3.73,1.84,1.84,0,0,1,.47-1.39l.93-.93c.31-.31.62-.16.93.46a21,21,0,0,0,1.86,2.79q1.39,1.88,3.26,10.24t3.72,15.36a124.13,124.13,0,0,1,2.8,13c.62,4,1.24,8.53,1.86,13.5s1.08,8.22,1.39,9.77.63,3.25.94,5.12a27.76,27.76,0,0,1,.46,4.18c0,.93.16,1.4.47,1.4h.93a.4.4,0,0,1,.46.46v.93h0v-1.39c0-.62.16-2.33.47-5.12s.62-5.74.93-8.84.62-6.82.93-11.17.47-9.46.47-15.35.15-10.39.46-13.49a58.68,58.68,0,0,1,1.4-8.38q.93-3.72,1.4-5.12a17.94,17.94,0,0,1,.93-2.32,3.56,3.56,0,0,0,.46-1.4v-.93a.42.42,0,0,1,.47-.47h1.86c.31,0,1.09.63,2.33,1.87a35,35,0,0,1,3.26,3.72,31.31,31.31,0,0,1,3.26,6.51,66,66,0,0,1,2.79,8.38q.93,3.72,1.86,8.37t2.33,12.56a79.07,79.07,0,0,1,1.4,10.24,17.34,17.34,0,0,0,.46,4.19,14.21,14.21,0,0,1,.47,2.32v.94c0,.31.15.15.46-.47a8,8,0,0,0,.47-3.26q0-2.32.46-11.63t1.4-18.14q.93-8.85,2.33-20c.93-7.45,1.7-12.56,2.33-15.36a42.13,42.13,0,0,1,2.32-7.44,36.82,36.82,0,0,0,1.87-5.12,13.58,13.58,0,0,0,.46-2.33,1.35,1.35,0,0,1,.47-.93,1.33,1.33,0,0,1,.93-.46c.31,0,.62.77.93,2.33s.77,4.65,1.4,9.3a96,96,0,0,1,.93,12.56v55.84a79.67,79.67,0,0,1,.93-8.38q.93-6.51,1.86-14a146.35,146.35,0,0,1,2.79-15.35q1.86-7.9,2.8-10.7t1.86-5.12l1.86-4.65a21.12,21.12,0,0,1,1.86-3.73,14.62,14.62,0,0,1,1.87-2.32c.62-.62.93-1.09.93-1.4a1.62,1.62,0,0,1,1.39-1.39h1.4a3.8,3.8,0,0,1,2.33,1.39,19.32,19.32,0,0,1,2.79,3.72,47.61,47.61,0,0,1,2.79,5.59c.93,2.17,1.87,4.65,2.8,7.44a47.85,47.85,0,0,1,1.86,7q.47,2.79.93,6.52a53.44,53.44,0,0,1,.47,6.51v18.15a22.35,22.35,0,0,1-1.4,6.51,58.49,58.49,0,0,0-1.86,6.51,26.63,26.63,0,0,1-1.4,4.66,10.64,10.64,0,0,0-.93,3.25,4.53,4.53,0,0,1-.93,2.33,4.53,4.53,0,0,0-.93,2.33,1.88,1.88,0,0,1-.47,1.39,13.76,13.76,0,0,1-1.86,1.4,4.47,4.47,0,0,0-1.86,2.32,11.22,11.22,0,0,1-2.8,3.73l-4.19,4.18-3.72,3.73a32,32,0,0,1-5.59,4.18,65.18,65.18,0,0,0-6,4.19,22.06,22.06,0,0,1-6.05,3.26q-3.72,1.4-6.05,2.32c-1.56.63-2.8,1.09-3.73,1.4s-2,.62-3.26.93a14.21,14.21,0,0,1-2.32.47h-1.4a4.12,4.12,0,0,0-1.86.46,3.62,3.62,0,0,1-1.4.47,7.52,7.52,0,0,0-1.86.46,7.71,7.71,0,0,1-1.86.47H286.5a5.16,5.16,0,0,0-2.32.46l-1.87.93a4.13,4.13,0,0,1-1.86.47H256.24a4.13,4.13,0,0,1-1.86-.47l-1.86-.93a3.56,3.56,0,0,0-1.4-.46h-.93a1.35,1.35,0,0,1-.93-.47l-.93-.93a1.91,1.91,0,0,0-1.4-.46H246" transform="translate(-208.98 -257.47)"/>
  </g>
  <g id="wEVobVdnxvsrWyzfyAKXo">
    <path class="cls-1" d="M245.07,420.63h66.58a22.13,22.13,0,0,0,5.12-.47c1.24-.31,2.63-.62,4.19-.93a21.48,21.48,0,0,1,4.19-.46,15.29,15.29,0,0,0,3.72-.47l3.72-.93,3.73-.93c1.24-.31,2.33-.62,3.26-.93a25.66,25.66,0,0,0,3.26-1.4,7.48,7.48,0,0,1,3.26-.93,2.7,2.7,0,0,0,1.86-.46,5.37,5.37,0,0,1,1.39-.93,5.23,5.23,0,0,1,2.33-.47,2.7,2.7,0,0,0,1.86-.46,5.45,5.45,0,0,1,1.4-.93,22.92,22.92,0,0,0,2.33-1.4c.93-.62,1.4-1.24,1.4-1.86a2.68,2.68,0,0,1,.93-1.86A7.26,7.26,0,0,0,361,403a6.49,6.49,0,0,0,.47-2.8,49.61,49.61,0,0,0-.47-5.58A29.92,29.92,0,0,0,356.8,382c-1.24-2.17-2.32-4.19-3.26-6.05s-1.86-3.57-2.79-5.12-1.55-2.63-1.86-3.25l-.93-1.87a3.58,3.58,0,0,1-.47-1.39,1.33,1.33,0,0,0-.46-.93l-.93-.93a1.35,1.35,0,0,1-.47-.93c0-.31-.31-.47-.93-.47h-4.19a1.35,1.35,0,0,0-.93.47l-.93.93a1.88,1.88,0,0,0-.47,1.39v1.86a4.19,4.19,0,0,1-.46,1.87,4.13,4.13,0,0,0-.47,1.86v28.38c0,.31-.15.46-.47.46a.41.41,0,0,0-.46.47v.93a.41.41,0,0,1-.47.46h-.93a1.33,1.33,0,0,1-.93-.46l-.93-.93-.93-.93-.93-.93-.93-.93-.93-.93-1.4-1.4a2.68,2.68,0,0,1-.93-1.86c0-.62-.16-.93-.47-.93s-.62-.47-.93-1.4a5,5,0,0,0-.93-1.86,5.37,5.37,0,0,1-.93-1.39,18.14,18.14,0,0,1-.93-2.33,5,5,0,0,0-.93-1.86,1.91,1.91,0,0,1-.47-1.4,4.12,4.12,0,0,0-.46-1.86,4.13,4.13,0,0,1-.47-1.86A4,4,0,0,0,320,375a5.45,5.45,0,0,0-.93-1.4,5.37,5.37,0,0,1-.93-1.39,4.12,4.12,0,0,1-.46-1.86,4.13,4.13,0,0,0-.47-1.86,5.45,5.45,0,0,0-.93-1.4,5.45,5.45,0,0,1-.93-1.4q-.47-.93-.93-.93h-3.73a.41.41,0,0,0-.46.47v.93a.41.41,0,0,1-.47.46c-.31,0-.62.31-.93.94a3.52,3.52,0,0,0-.46,1.39c0,.31-.31.78-.93,1.4a2.66,2.66,0,0,0-.94,1.86v19.54c0,.62-.15.93-.46.93s-.47.31-.47.93a4.12,4.12,0,0,1-.46,1.86,7.31,7.31,0,0,1-1.4,1.86,2.68,2.68,0,0,0-.93,1.86c0,.62-.16.93-.47.93h-.93a.41.41,0,0,0-.46.47q0,.47-.93.93t-.93.93c0,.31-.32.62-.94.93a4.13,4.13,0,0,1-1.86.47,1.88,1.88,0,0,1-1.39-.47l-.94-.93a5.37,5.37,0,0,0-1.39-.93q-.93-.46-.93-.93t-.93-.93a3,3,0,0,1-1.4-1.4l-.93-1.86-.93-1.86a17.94,17.94,0,0,1-.93-2.32,7.46,7.46,0,0,1-.47-2.33c0-.62-.16-.93-.47-.93s-.62-.31-.93-.93a3.56,3.56,0,0,1-.46-1.4,1.35,1.35,0,0,0-.47-.93,5.37,5.37,0,0,1-.93-1.39,4.19,4.19,0,0,1-.46-1.87,4.13,4.13,0,0,0-.47-1.86l-.93-1.86a3.58,3.58,0,0,1-.47-1.39c0-.31-.31-.78-.93-1.4s-.93-1.09-.93-1.4a1.33,1.33,0,0,0-.46-.93l-.94-.93-1.39-1.39c-.62-.62-1.09-.93-1.4-.93h-3.72q-.46,0-.93.93a3.58,3.58,0,0,0-.47,1.39,1.35,1.35,0,0,1-.47.93,5.45,5.45,0,0,0-.93,1.4,4.12,4.12,0,0,0-.46,1.86v17.22a1.35,1.35,0,0,1-.47.93L266,396a1.88,1.88,0,0,0-.46,1.39,1.91,1.91,0,0,1-.47,1.4l-.93.93a1.33,1.33,0,0,1-.93.46,1.35,1.35,0,0,0-.93.47,1.91,1.91,0,0,1-1.4.47H259a4.13,4.13,0,0,1-1.86-.47,3.67,3.67,0,0,0-1.4-.47c-.31,0-.78-.31-1.4-.93L253,397.83a1.35,1.35,0,0,1-.47-.93q0-.47-.93-.93t-.93-.93a3.62,3.62,0,0,0-.47-1.4,5.37,5.37,0,0,0-.93-1.39,1.92,1.92,0,0,1-.46-1.4,1.91,1.91,0,0,0-.47-1.4l-.93-.93a1.35,1.35,0,0,1-.47-.93,3.52,3.52,0,0,0-.46-1.39q-.47-.93-.93-.93c-.31,0-.47-.31-.47-.93a1.89,1.89,0,0,0-.46-1.4l-.94-.93a1.35,1.35,0,0,0-.93-.47H239c-.31,0-.62.47-.93,1.4a7.71,7.71,0,0,0-.47,1.86v1.4a4.12,4.12,0,0,1-.46,1.86,4.13,4.13,0,0,0-.47,1.86v4.19a5.15,5.15,0,0,0,.47,2.32,4.12,4.12,0,0,1,.46,1.86v1.86a1.89,1.89,0,0,0,.47,1.4A5.45,5.45,0,0,1,239,403a4.12,4.12,0,0,1,.46,1.86v7a.41.41,0,0,0,.47.46.42.42,0,0,1,.47.47v1.86a3.52,3.52,0,0,0,.46,1.39,3.62,3.62,0,0,1,.47,1.4v3.26" transform="translate(-208.98 -257.47)"/>
  </g>
  <g id="e1W6Lah-f7uGrFQnTWZz3">
    <path class="cls-1" d="M303.18,306.39,290.63,311q-5.82,2.12-11.88,4Zm-24.43,8.54h0Zm-17.92,6.27,33.07,29.57a8.44,8.44,0,0,0-3.27-1.06q-1.14,0-2.28-2.28a12.86,12.86,0,0,0-4.57-4.56q-3.42-2.28-10.26-8t-14.83-12.54l-.33-.29-5,1.74-.41.83q-2.28,4.56-2.28,6.84a6.57,6.57,0,0,1-2.28,4.56q-2.28,2.28-2.28,3.42V344a3.3,3.3,0,0,1-1.15,2.28,3.28,3.28,0,0,0-1.14,2.28,8.75,8.75,0,0,1-1.14,3.42l-1.14,2.28,7.22-28.86-18.65,6.52c.71-.45,1.48-1,2.31-1.6a39.94,39.94,0,0,1,11.4-5.7c1.58-.53,3.44-1.1,5.56-1.72l1.45-5.79c-.4-.16-.84-.31-1.3-.47a29.69,29.69,0,0,1-8-4.56,25.68,25.68,0,0,0-9.12-4.56q-4.56-1.14-5.71-2.28l-1.14-1.14,22.67,7.78q-2.26-2.64-4.42-5.5-.42-.57-.87-1.14l8.77,7.84.11,0,8-31.82v26.22a12.69,12.69,0,0,1-1.14,5.7l-1,1.91,9.17,3.15q6-1.56,11.84-3.36L268,318.68l30.58,10.51H283.78a3.28,3.28,0,0,1-2.28-1.14,3.28,3.28,0,0,0-2.28-1.14,8.75,8.75,0,0,1-3.42-1.14,8.75,8.75,0,0,0-3.42-1.14H270.1a8.75,8.75,0,0,1-3.42-1.14,13.17,13.17,0,0,1-3.43-2.28,5.5,5.5,0,0,0-.71-.61Zm-1.19-1.06.26-.07h-.34Zm-2.67.69-.86-.78a2.45,2.45,0,0,1-.72-.21l-.82,1.64,2.4-.65Zm-31.36,12.92-.74,0,5.28-1.85a9.54,9.54,0,0,1-4.54,1.82Zm-.74,0L220,335.47a9.27,9.27,0,0,1,1-.58A10.31,10.31,0,0,1,224.87,333.78Zm-6.1,3.39a1,1,0,0,1-1.14,1.14h-5.71l8.11-2.84c-.84.57-1.26,1.13-1.26,1.7Zm9.13-46.74A79,79,0,0,1,243,305.25l-24.22-21.66,9.13,6.84Zm66.15,60.42a13.26,13.26,0,0,1,3.42,2.28l2.28,2.28,3.42,3.42,2.29,2.28L293.9,350.77Z" transform="translate(-208.98 -257.47)"/>
  </g>
  <g id="zqFxi9jzA-482RbV_hDjw" data-name="zqFxi9jzA-482RbV hDjw">
    <path class="cls-1" d="M343.56,286.61,331,291.17q-5.82,2.11-11.88,4Zm-24.43,8.54h0Zm-17.92,6.27L334.28,331a8.44,8.44,0,0,0-3.27-1.06q-1.14,0-2.28-2.28a12.86,12.86,0,0,0-4.57-4.56q-3.42-2.28-10.26-8t-14.83-12.54l-.33-.29-5,1.74-.41.83q-2.28,4.56-2.28,6.84a6.57,6.57,0,0,1-2.28,4.56q-2.28,2.28-2.28,3.42v4.56a3.3,3.3,0,0,1-1.15,2.28,3.28,3.28,0,0,0-1.14,2.28,8.75,8.75,0,0,1-1.14,3.42L282,334.49l7.22-28.86-18.65,6.52c.71-.45,1.48-1,2.31-1.6a39.94,39.94,0,0,1,11.4-5.7c1.58-.53,3.44-1.1,5.56-1.72l1.45-5.79c-.4-.16-.84-.31-1.3-.47a29.69,29.69,0,0,1-8-4.56,25.68,25.68,0,0,0-9.12-4.56q-4.56-1.14-5.71-2.28L266,284.33l22.67,7.78q-2.27-2.64-4.42-5.5-.42-.57-.87-1.14l8.77,7.84.11,0,8-31.82v26.22a12.69,12.69,0,0,1-1.14,5.7l-1,1.91,9.17,3.15q6-1.56,11.84-3.36l-10.71,3.75L339,309.41H324.16a3.28,3.28,0,0,1-2.28-1.14,3.28,3.28,0,0,0-2.28-1.14,8.75,8.75,0,0,1-3.42-1.14,8.75,8.75,0,0,0-3.42-1.14h-2.28a8.75,8.75,0,0,1-3.42-1.14,13.17,13.17,0,0,1-3.43-2.28,5.5,5.5,0,0,0-.71-.61ZM300,300.36l.26-.07h-.34Zm-2.67.69-.86-.78a2.45,2.45,0,0,1-.72-.21L295,301.7l2.4-.65ZM266,314l-.74,0,5.28-1.85A9.54,9.54,0,0,1,266,314Zm-.74,0-4.84,1.69a9.27,9.27,0,0,1,1-.58A10.31,10.31,0,0,1,265.25,314Zm-6.1,3.39a1,1,0,0,1-1.14,1.14H252.3l8.11-2.84c-.84.57-1.26,1.13-1.26,1.7Zm9.13-46.74a79,79,0,0,1,15.09,14.82l-24.22-21.66,9.13,6.84Zm66.15,60.42a13.26,13.26,0,0,1,3.42,2.28l2.28,2.28,3.42,3.42,2.29,2.28L334.28,331Z" transform="translate(-208.98 -257.47)"/>
  </g>
  <g id="zF_DusgmovymhaVSjugfd" data-name="zF DusgmovymhaVSjugfd">
    <path class="cls-1" d="M397.13,306.43,384.58,311q-5.82,2.11-11.88,4ZM372.7,315h0Zm-17.92,6.27,33.07,29.57a8.44,8.44,0,0,0-3.27-1.06q-1.14,0-2.28-2.28a12.86,12.86,0,0,0-4.57-4.56q-3.42-2.28-10.26-8t-14.83-12.54l-.33-.29-5,1.74-.41.83q-2.28,4.56-2.28,6.84a6.57,6.57,0,0,1-2.28,4.56q-2.28,2.28-2.28,3.42v4.56a3.3,3.3,0,0,1-1.15,2.28,3.28,3.28,0,0,0-1.14,2.28,8.75,8.75,0,0,1-1.14,3.42l-1.14,2.28,7.22-28.86L324.1,332c.71-.45,1.48-1,2.31-1.6a39.94,39.94,0,0,1,11.4-5.7c1.58-.53,3.44-1.1,5.56-1.72l1.45-5.79c-.4-.16-.84-.31-1.3-.47a29.69,29.69,0,0,1-8-4.56,25.68,25.68,0,0,0-9.12-4.56q-4.56-1.14-5.71-2.28l-1.14-1.14,22.67,7.78q-2.26-2.64-4.42-5.5-.42-.57-.87-1.14l8.77,7.84.11,0,8-31.82v26.22a12.69,12.69,0,0,1-1.14,5.7l-1,1.91,9.17,3.15q6-1.56,11.84-3.36L362,318.72l30.58,10.51H377.73a3.28,3.28,0,0,1-2.28-1.14,3.28,3.28,0,0,0-2.28-1.14,8.75,8.75,0,0,1-3.42-1.14,8.75,8.75,0,0,0-3.42-1.14h-2.28a8.75,8.75,0,0,1-3.42-1.14,13.17,13.17,0,0,1-3.43-2.28,5.5,5.5,0,0,0-.71-.61Zm-1.19-1.06.26-.07h-.34Zm-2.67.69-.86-.78a2.45,2.45,0,0,1-.72-.21l-.82,1.64,2.4-.65Zm-31.36,12.92-.74,0L324.1,332a9.54,9.54,0,0,1-4.54,1.82Zm-.74,0L314,335.51a9.27,9.27,0,0,1,1-.58A10.31,10.31,0,0,1,318.82,333.82Zm-6.1,3.39a1,1,0,0,1-1.14,1.14h-5.71l8.11-2.84c-.84.57-1.26,1.13-1.26,1.7Zm9.13-46.74a79,79,0,0,1,15.09,14.82l-24.22-21.66,9.13,6.84ZM388,350.89a13.26,13.26,0,0,1,3.42,2.28l2.28,2.28,3.42,3.42,2.29,2.28-11.56-10.34Z" transform="translate(-208.98 -257.47)"/>
  </g>
  <g id="R6snMLfI1vLVw996DJbzo">
    <path class="cls-1" d="M294.54,520.78v-1.4a20.67,20.67,0,0,0-.13-2.09c-.08-.78-.17-1.47-.25-2.09a13,13,0,0,1-.13-1.87V501a15.85,15.85,0,0,0-.12-1.74,14,14,0,0,1-.13-1.74,10.54,10.54,0,0,0-.12-1.52,8.64,8.64,0,0,1-.13-1.39v-9.77c0-.08,0-.12.13-.12h.25c.08,0,.16.12.25.35a4.83,4.83,0,0,0,.63,1.05,9.33,9.33,0,0,1,.88,1.51c.25.54.46,1,.63,1.39a6.14,6.14,0,0,1,.37,1.52,10.25,10.25,0,0,1,.13,1.28v10.93a2.63,2.63,0,0,1-.13.93,7.34,7.34,0,0,0-.25.93,4.9,4.9,0,0,0-.12.93,3.44,3.44,0,0,1-.13.82c-.08.31-.17.69-.25,1.16a6.69,6.69,0,0,0-.13,1.28,9.66,9.66,0,0,1-.12,1.39,8.75,8.75,0,0,0-.13,1.4v1.16a7.53,7.53,0,0,1-.12,1.28,6.05,6.05,0,0,0-.13,1.05v2.33a.32.32,0,0,1-.13.23.33.33,0,0,0-.12.23.8.8,0,0,1-.13.35.89.89,0,0,0-.12.35v.81" transform="translate(-208.98 -257.47)"/>
  </g>
  <g id="NfPEpmQMsR3UL0C9o7mbI">
    <path class="cls-1" d="M299.06,511.58V442c0-2.49,0-4.18-.13-5.09l-.27-2.72c-.09-.9-.14-1.81-.14-2.72a11.34,11.34,0,0,0-.13-2q-.13-.69-.27-2c-.09-.91-.14-1.59-.14-2a7,7,0,0,0-.13-1.36,5.81,5.81,0,0,1-.14-1v-2c0-.23,0-.34-.13-.34s-.14.11-.14.34a8.57,8.57,0,0,1-.4,1.69,15,15,0,0,0-.54,3.06c-.09,1.13-.27,2.72-.54,4.76s-.54,4.3-.81,6.79-.45,5.32-.54,8.49-.09,5.77,0,7.81.13,4.08.13,6.12a55.28,55.28,0,0,0,.54,7.13q.54,4.08.68,6.45c.09,1.59.22,3.4.4,5.44s.36,3.51.54,4.41a27.07,27.07,0,0,1,.41,3.4c.09,1.36.13,2.26.13,2.72a6.88,6.88,0,0,0,.14,1.35c.09.46.18,1,.27,1.7a15.52,15.52,0,0,1,.13,2,12.46,12.46,0,0,0,.27,2.38,13.86,13.86,0,0,1,.27,2.72v7.47a2.92,2.92,0,0,0,.14,1,1.79,1.79,0,0,1,.13.68v.68a1.88,1.88,0,0,0,.14.68l.13.34" transform="translate(-208.98 -257.47)"/>
  </g>
  <g id="srXtuKxDIOCZ0x1zhmJ7r">
    <path class="cls-1" d="M298.66,528.46v-1.34c0-.89.3-3.35.88-7.37s1.18-7.37,1.76-10.05a91.72,91.72,0,0,0,1.47-12.06q.59-8,.88-13.4c.19-3.57.39-6.92.58-10.05l.59-9.38c.2-3.13.29-5.36.29-6.7v-8a34.51,34.51,0,0,0-.29-4.36,27.42,27.42,0,0,0-.88-4.35,28.08,28.08,0,0,1-.88-4.69c-.19-1.79-.39-3.24-.58-4.36a17.19,17.19,0,0,1-.3-3,8.68,8.68,0,0,0-.29-2.35,6,6,0,0,1-.29-1.67v-3.35a1.49,1.49,0,0,1,.29-1,1.11,1.11,0,0,1,.88-.33,2.6,2.6,0,0,1,1.46.67,13.94,13.94,0,0,1,2.35,2.68,30.32,30.32,0,0,1,2.64,4.35,21,21,0,0,1,1.76,5.36c.39,2,.69,3.58.88,4.69a21.09,21.09,0,0,1,.29,3.69c0,1.34-.09,3.13-.29,5.36s-.29,4-.29,5.36a22.64,22.64,0,0,1-.88,5.36,52.12,52.12,0,0,0-1.18,5.36c-.19,1.34-.39,2.68-.58,4s-.39,3.13-.59,5.36a28.47,28.47,0,0,1-.88,5.36,52.15,52.15,0,0,0-1.17,5.36l-1.18,6.7a37,37,0,0,0-.58,4,17.07,17.07,0,0,1-.59,3,16,16,0,0,0-.58,3.35,10.94,10.94,0,0,1-.3,2.35l-.58,2.68a12.52,12.52,0,0,1-.59,2,3.24,3.24,0,0,0-.29,1.34c0,.45-.1.67-.3.67s-.29.33-.29,1V512a2.94,2.94,0,0,1-.29,1,3.26,3.26,0,0,0-.3,1.34v5.7a3,3,0,0,1-.29,1,3.24,3.24,0,0,0-.29,1.34v1.34a1.49,1.49,0,0,1-.3,1,1,1,0,0,0-.29.67v5" transform="translate(-208.98 -257.47)"/>
  </g>
  <g id="_2CT6lfIEBeTIHTs9_9bUS" data-name="2CT6lfIEBeTIHTs9_9bUS">
    <path class="cls-1" d="M289.8,509.64v-.34c0-.22,0-.67-.06-1.34s-.06-1.56-.06-2.68,0-2.12-.12-3-.14-1.9-.18-3-.08-2.57-.12-4.35-.12-4.13-.24-7-.2-4.58-.24-5-.07-.9-.07-1.34v-2c0-.9,0-1.79-.06-2.68s-.06-1.45-.06-1.68v-7.37c0-1.11,0-2.57.06-4.35s.13-3.35.25-4.69l.36-4q.18-2,.42-3.69c.16-1.11.33-2.45.49-4s.32-2.9.48-4,.3-2.12.43-3,.28-2.12.48-3.69.36-2.79.48-3.68l.37-2.68c.12-.9.24-1.9.36-3s.2-1.9.24-2.34.1-.9.18-1.34a7.67,7.67,0,0,0,.12-1.34v-1a3.11,3.11,0,0,1,.07-.67l.12-.67a3.71,3.71,0,0,0,.06-.67v4.69c0,1.57,0,3.46-.12,5.7s-.21,5.36-.37,9.38-.3,7.59-.42,10.72-.2,5.47-.24,7-.12,3.24-.25,5-.2,3.57-.24,5.36-.1,3.24-.18,4.35-.14,2.79-.18,5-.06,3.79-.06,4.69,0,1.78-.06,2.68-.08,2-.12,3.35-.06,2.45-.06,3.35,0,1.78-.06,2.68-.08,1.56-.12,2l-.13,1.34-.18,2-.18,2-.12,1.34-.12,1.34c0,.44-.08,1-.12,1.67s-.06,1.12-.06,1.34,0,.34-.06.34-.08.22-.12.67-.08.67-.13.67-.08.11-.12.33-.08.34-.12.34h-.54" transform="translate(-208.98 -257.47)"/>
  </g>
  <g id="svrkTTk_lqOK2gbm_1x54" data-name="svrkTTk lqOK2gbm 1x54">
    <path class="cls-1" d="M294.89,509.8h-.17a1.83,1.83,0,0,1-.69-.34,4.38,4.38,0,0,1-1-1,8.37,8.37,0,0,1-1-2c-.34-.9-.63-1.68-.86-2.35s-.58-2-1-4-.87-3.91-1.21-5.69-.63-3.69-.86-5.7-.4-3.68-.52-5-.17-2.68-.17-4A37.34,37.34,0,0,0,287,475a35.51,35.51,0,0,1-.34-4.36,35.23,35.23,0,0,0-.34-4.35,37.47,37.47,0,0,1-.35-4.69c0-1.34-.06-2.68-.17-4s-.23-2.8-.35-4.36-.23-2.9-.34-4-.23-2.57-.34-4.35-.18-3.24-.18-4.36a16.56,16.56,0,0,0-.34-3.35,22.28,22.28,0,0,1-.35-4.35,25.21,25.21,0,0,0-.17-3.69,10.84,10.84,0,0,1-.17-1.34v-6c0-.67.06-1,.17-1s.17-.23.17-.67a5.09,5.09,0,0,1,.18-1.34c.11-.45.23-.67.34-.67h.86c.23,0,.52.33.86,1s.75,1.56,1.21,2.68a37.76,37.76,0,0,1,1.55,5.36c.57,2.46,1,4.91,1.38,7.37s.63,5.25.86,8.38.34,5.36.34,6.7.06,2.68.18,4,.17,2.56.17,3.68v3.35c0,1.12.06,2.46.17,4s.29,3,.52,4.36a44,44,0,0,1,.51,4.69c.12,1.78.23,3.23.35,4.35s.23,2.57.34,4.36.23,3.12.35,4a21.4,21.4,0,0,0,.51,2.68,12,12,0,0,1,.35,3v14.07a4.83,4.83,0,0,0,.17,1l.17.67" transform="translate(-208.98 -257.47)"/>
  </g>
  <g id="OVl31IDBlYkglsB6qBFtB">
    <path class="cls-1" d="M295.45,516.76V433.34a21,21,0,0,1,.19-3c.13-.9.25-2,.38-3.35s.19-2.35.19-3a3,3,0,0,1,.19-1.34,4.25,4.25,0,0,0,.19-1.67,8.15,8.15,0,0,1,.19-2c.13-.45.26-.67.39-.67s.31.78.57,2.34.57,3.35.95,5.36a78.16,78.16,0,0,1,1,8.38q.38,5.36,1.14,13.4t.77,12.39a58.8,58.8,0,0,1-.39,7.37c-.25,2-.51,4.36-.76,7s-.51,4.91-.76,6.7-.58,4.13-1,7-.7,5.25-.95,7-.45,3.23-.57,4.35a32.09,32.09,0,0,0-.2,3.69V524.8a4.82,4.82,0,0,1-.19,1.34,4.37,4.37,0,0,0-.19,1c0,.22-.06.34-.19.34a1.11,1.11,0,0,1-.57-.34.9.9,0,0,1-.38-.67c0-.22-.19-.45-.57-.67a2,2,0,0,1-.77-.67l-.57-1-.57-1q-.2-.33-.39-.33c-.12,0-.25-.23-.38-.67l-.19-.67" transform="translate(-208.98 -257.47)"/>
  </g>
</svg>
